<svg width="304" height="176" viewBox="0 0 304 176" fill="none" xmlns="http://www.w3.org/2000/svg">
<path d="M228.177 2.492L229.437 2.888L224.199 18.908L222.921 18.512L228.177 2.492ZM238.839 2.492L240.099 2.888L234.861 18.908L233.583 18.512L238.839 2.492ZM253.736 9.296C253.736 7.664 254.126 6.398 254.906 5.498C255.686 4.598 256.772 4.148 258.164 4.148C259.556 4.148 260.642 4.598 261.422 5.498C262.202 6.398 262.592 7.664 262.592 9.296V12.104C262.592 13.784 262.202 15.062 261.422 15.938C260.642 16.814 259.556 17.252 258.164 17.252C256.772 17.252 255.686 16.814 254.906 15.938C254.126 15.062 253.736 13.784 253.736 12.104V9.296ZM258.164 15.884C259.136 15.884 259.862 15.548 260.342 14.876C260.834 14.192 261.08 13.232 261.08 11.996V9.404C261.08 8.828 261.02 8.306 260.9 7.838C260.78 7.358 260.594 6.95 260.342 6.614C260.102 6.266 259.796 5.996 259.424 5.804C259.064 5.612 258.644 5.516 258.164 5.516C257.672 5.516 257.246 5.612 256.886 5.804C256.526 5.996 256.22 6.266 255.968 6.614C255.728 6.95 255.548 7.358 255.428 7.838C255.308 8.306 255.248 8.828 255.248 9.404V11.996C255.248 13.232 255.488 14.192 255.968 14.876C256.46 15.548 257.192 15.884 258.164 15.884ZM257.012 10.7C257.012 10.388 257.126 10.118 257.354 9.89C257.582 9.662 257.852 9.548 258.164 9.548C258.476 9.548 258.746 9.662 258.974 9.89C259.202 10.118 259.316 10.388 259.316 10.7C259.316 11.012 259.202 11.282 258.974 11.51C258.746 11.738 258.476 11.852 258.164 11.852C257.852 11.852 257.582 11.738 257.354 11.51C257.126 11.282 257.012 11.012 257.012 10.7ZM267.565 15.992C267.565 15.644 267.685 15.35 267.925 15.11C268.177 14.858 268.477 14.732 268.825 14.732C269.173 14.732 269.467 14.858 269.707 15.11C269.959 15.35 270.085 15.644 270.085 15.992C270.085 16.34 269.959 16.64 269.707 16.892C269.467 17.132 269.173 17.252 268.825 17.252C268.477 17.252 268.177 17.132 267.925 16.892C267.685 16.64 267.565 16.34 267.565 15.992ZM278.821 15.596V5.066H278.605L276.535 9.8H275.041V9.692L277.399 4.4H280.333V15.596H283.897V17H275.257V15.596H278.821Z" fill="#AAAAAA"/>
<g filter="url(#filter0_dd_1_42)">
<path d="M176.904 45H174.15L172.98 33.048H172.764L171.594 45H168.84L167.562 32.4H168.93L170.136 44.352H170.352L171.486 32.4H174.258L175.392 44.352H175.608L176.814 32.4H178.182L176.904 45ZM179.717 32.4H187.349V33.804H181.229V37.98H187.241V39.384H181.229V43.596H187.457V45H179.717V32.4ZM189.713 43.596H190.793V33.804H189.713V32.4H194.807C195.407 32.4 195.935 32.484 196.391 32.652C196.859 32.82 197.249 33.048 197.561 33.336C197.885 33.624 198.125 33.972 198.281 34.38C198.449 34.776 198.533 35.208 198.533 35.676V35.892C198.533 36.24 198.479 36.558 198.371 36.846C198.263 37.134 198.113 37.392 197.921 37.62C197.729 37.848 197.501 38.046 197.237 38.214C196.985 38.37 196.709 38.49 196.409 38.574V38.79C197.009 38.958 197.513 39.282 197.921 39.762C198.329 40.23 198.533 40.806 198.533 41.49V41.706C198.533 42.174 198.449 42.612 198.281 43.02C198.125 43.416 197.885 43.764 197.561 44.064C197.249 44.352 196.859 44.58 196.391 44.748C195.935 44.916 195.407 45 194.807 45H189.713V43.596ZM192.305 43.596H194.699C195.407 43.596 195.983 43.422 196.427 43.074C196.871 42.714 197.093 42.222 197.093 41.598V41.49C197.093 40.842 196.883 40.332 196.463 39.96C196.043 39.576 195.473 39.384 194.753 39.384H192.305V43.596ZM192.305 37.98H194.753C195.473 37.98 196.043 37.794 196.463 37.422C196.883 37.05 197.093 36.54 197.093 35.892V35.784C197.093 35.172 196.871 34.692 196.427 34.344C195.983 33.984 195.407 33.804 194.699 33.804H192.305V37.98ZM203.614 38.736V36.648L207.718 34.02V33.804H200.59V32.4H209.014V34.704L204.91 37.332V37.548H205.63C206.11 37.548 206.572 37.626 207.016 37.782C207.46 37.938 207.85 38.166 208.186 38.466C208.534 38.766 208.81 39.138 209.014 39.582C209.23 40.014 209.338 40.518 209.338 41.094V41.418C209.338 41.958 209.23 42.462 209.014 42.93C208.798 43.398 208.498 43.806 208.114 44.154C207.73 44.49 207.274 44.76 206.746 44.964C206.23 45.156 205.666 45.252 205.054 45.252C204.346 45.252 203.71 45.144 203.146 44.928C202.582 44.712 202.102 44.418 201.706 44.046C201.31 43.662 201.004 43.218 200.788 42.714C200.584 42.198 200.482 41.652 200.482 41.076V40.104H201.994V40.968C201.994 41.424 202.066 41.832 202.21 42.192C202.366 42.54 202.576 42.84 202.84 43.092C203.116 43.332 203.44 43.518 203.812 43.65C204.184 43.782 204.586 43.848 205.018 43.848C205.414 43.848 205.78 43.782 206.116 43.65C206.464 43.518 206.764 43.338 207.016 43.11C207.268 42.87 207.466 42.594 207.61 42.282C207.754 41.958 207.826 41.616 207.826 41.256V41.148C207.826 40.392 207.586 39.804 207.106 39.384C206.626 38.952 206.026 38.736 205.306 38.736H203.614ZM224.973 38.952H230.589V45H229.185V43.488H228.969C228.765 44.016 228.405 44.442 227.889 44.766C227.373 45.09 226.773 45.252 226.089 45.252C224.733 45.252 223.665 44.814 222.885 43.938C222.117 43.062 221.733 41.784 221.733 40.104V37.296C221.733 35.664 222.123 34.398 222.903 33.498C223.683 32.598 224.769 32.148 226.161 32.148C226.881 32.148 227.517 32.268 228.069 32.508C228.621 32.736 229.083 33.06 229.455 33.48C229.827 33.888 230.109 34.374 230.301 34.938C230.493 35.49 230.589 36.084 230.589 36.72V36.936H229.077V36.72C229.077 36.312 229.017 35.916 228.897 35.532C228.789 35.148 228.615 34.812 228.375 34.524C228.147 34.224 227.847 33.99 227.475 33.822C227.115 33.642 226.677 33.552 226.161 33.552C225.189 33.552 224.457 33.906 223.965 34.614C223.485 35.322 223.245 36.252 223.245 37.404V39.996C223.245 41.232 223.485 42.186 223.965 42.858C224.457 43.518 225.201 43.848 226.197 43.848C227.097 43.848 227.799 43.56 228.303 42.984C228.819 42.408 229.077 41.604 229.077 40.572V40.356H224.973V38.952ZM239.541 41.868H234.141L233.223 45H231.603L235.419 32.4H238.263L242.079 45H240.459L239.541 41.868ZM236.733 33.048L234.555 40.464H239.127L236.949 33.048H236.733ZM242.822 32.4H245.702L247.394 44.352H247.61L249.302 32.4H252.182V45H250.778V33.048H250.562L248.87 45H246.134L244.442 33.048H244.226V45H242.822V32.4ZM254.168 32.4H262.16V33.804H258.92V43.596H262.16V45H254.168V43.596H257.408V33.804H254.168V32.4ZM271.291 44.352H271.507V32.4H273.019V45H269.995L266.359 33.048H266.143V45H264.631V32.4H267.655L271.291 44.352ZM278.281 38.952H283.897V45H282.493V43.488H282.277C282.073 44.016 281.713 44.442 281.197 44.766C280.681 45.09 280.081 45.252 279.397 45.252C278.041 45.252 276.973 44.814 276.193 43.938C275.425 43.062 275.041 41.784 275.041 40.104V37.296C275.041 35.664 275.431 34.398 276.211 33.498C276.991 32.598 278.077 32.148 279.469 32.148C280.189 32.148 280.825 32.268 281.377 32.508C281.929 32.736 282.391 33.06 282.763 33.48C283.135 33.888 283.417 34.374 283.609 34.938C283.801 35.49 283.897 36.084 283.897 36.72V36.936H282.385V36.72C282.385 36.312 282.325 35.916 282.205 35.532C282.097 35.148 281.923 34.812 281.683 34.524C281.455 34.224 281.155 33.99 280.783 33.822C280.423 33.642 279.985 33.552 279.469 33.552C278.497 33.552 277.765 33.906 277.273 34.614C276.793 35.322 276.553 36.252 276.553 37.404V39.996C276.553 41.232 276.793 42.186 277.273 42.858C277.765 43.518 278.509 43.848 279.505 43.848C280.405 43.848 281.107 43.56 281.611 42.984C282.127 42.408 282.385 41.604 282.385 40.572V40.356H278.281V38.952Z" fill="#D1D3FF"/>
</g>
<path d="M27 148.559L137.951 56.766" stroke="#FAFAFA" stroke-opacity="0.2" stroke-dasharray="2 2"/>
<g filter="url(#filter1_d_1_42)">
<path d="M139.951 56H284.951" stroke="url(#paint0_linear_1_42)" stroke-opacity="0.2" stroke-dasharray="2.44 2.44" shape-rendering="crispEdges"/>
</g>
<g filter="url(#filter2_d_1_42)">
<rect x="23" y="149" width="4" height="4" rx="2" fill="#D1D3FF"/>
</g>
<defs>
<filter id="filter0_dd_1_42" x="147.562" y="12.1479" width="156.335" height="57.104" filterUnits="userSpaceOnUse" color-interpolation-filters="sRGB">
<feFlood flood-opacity="0" result="BackgroundImageFix"/>
<feColorMatrix in="SourceAlpha" type="matrix" values="0 0 0 0 0 0 0 0 0 0 0 0 0 0 0 0 0 0 127 0" result="hardAlpha"/>
<feOffset/>
<feGaussianBlur stdDeviation="10"/>
<feComposite in2="hardAlpha" operator="out"/>
<feColorMatrix type="matrix" values="0 0 0 0 1 0 0 0 0 1 0 0 0 0 1 0 0 0 0.5 0"/>
<feBlend mode="normal" in2="BackgroundImageFix" result="effect1_dropShadow_1_42"/>
<feColorMatrix in="SourceAlpha" type="matrix" values="0 0 0 0 0 0 0 0 0 0 0 0 0 0 0 0 0 0 127 0" result="hardAlpha"/>
<feOffset dy="4"/>
<feGaussianBlur stdDeviation="10"/>
<feComposite in2="hardAlpha" operator="out"/>
<feColorMatrix type="matrix" values="0 0 0 0 1 0 0 0 0 1 0 0 0 0 1 0 0 0 0.25 0"/>
<feBlend mode="normal" in2="effect1_dropShadow_1_42" result="effect2_dropShadow_1_42"/>
<feBlend mode="normal" in="SourceGraphic" in2="effect2_dropShadow_1_42" result="shape"/>
</filter>
<filter id="filter1_d_1_42" x="127.951" y="47.5" width="169" height="25" filterUnits="userSpaceOnUse" color-interpolation-filters="sRGB">
<feFlood flood-opacity="0" result="BackgroundImageFix"/>
<feColorMatrix in="SourceAlpha" type="matrix" values="0 0 0 0 0 0 0 0 0 0 0 0 0 0 0 0 0 0 127 0" result="hardAlpha"/>
<feOffset dy="4"/>
<feGaussianBlur stdDeviation="6"/>
<feComposite in2="hardAlpha" operator="out"/>
<feColorMatrix type="matrix" values="0 0 0 0 1 0 0 0 0 1 0 0 0 0 1 0 0 0 0.25 0"/>
<feBlend mode="normal" in2="BackgroundImageFix" result="effect1_dropShadow_1_42"/>
<feBlend mode="normal" in="SourceGraphic" in2="effect1_dropShadow_1_42" result="shape"/>
</filter>
<filter id="filter2_d_1_42" x="0" y="126" width="50" height="50" filterUnits="userSpaceOnUse" color-interpolation-filters="sRGB">
<feFlood flood-opacity="0" result="BackgroundImageFix"/>
<feColorMatrix in="SourceAlpha" type="matrix" values="0 0 0 0 0 0 0 0 0 0 0 0 0 0 0 0 0 0 127 0" result="hardAlpha"/>
<feMorphology radius="7" operator="dilate" in="SourceAlpha" result="effect1_dropShadow_1_42"/>
<feOffset/>
<feGaussianBlur stdDeviation="8"/>
<feComposite in2="hardAlpha" operator="out"/>
<feColorMatrix type="matrix" values="0 0 0 0 0.819608 0 0 0 0 0.827451 0 0 0 0 1 0 0 0 0.25 0"/>
<feBlend mode="normal" in2="BackgroundImageFix" result="effect1_dropShadow_1_42"/>
<feBlend mode="normal" in="SourceGraphic" in2="effect1_dropShadow_1_42" result="shape"/>
</filter>
<linearGradient id="paint0_linear_1_42" x1="284.951" y1="96.3531" x2="139.951" y2="96.3529" gradientUnits="userSpaceOnUse">
<stop stop-color="white" stop-opacity="0.12"/>
<stop offset="1" stop-color="white"/>
</linearGradient>
</defs>
</svg>
