<svg width="290" height="152" viewBox="0 0 290 152" fill="none" xmlns="http://www.w3.org/2000/svg">
<g filter="url(#filter0_d_1_68)">
<rect x="23" y="23" width="4" height="4" rx="2" fill="#D1D3FF"/>
</g>
<path d="M27.7432 27.3203L123.353 135" stroke="#FAFAFA" stroke-opacity="0.2" stroke-dasharray="2 2"/>
<g filter="url(#filter1_d_1_68)">
<path d="M126.096 135H271.096" stroke="url(#paint0_linear_1_68)" stroke-opacity="0.2" stroke-dasharray="2.44 2.44" shape-rendering="crispEdges"/>
</g>
<path d="M214.177 81.492L215.437 81.888L210.199 97.908L208.921 97.512L214.177 81.492ZM224.839 81.492L226.099 81.888L220.861 97.908L219.583 97.512L224.839 81.492ZM239.736 88.296C239.736 86.664 240.126 85.398 240.906 84.498C241.686 83.598 242.772 83.148 244.164 83.148C245.556 83.148 246.642 83.598 247.422 84.498C248.202 85.398 248.592 86.664 248.592 88.296V91.104C248.592 92.784 248.202 94.062 247.422 94.938C246.642 95.814 245.556 96.252 244.164 96.252C242.772 96.252 241.686 95.814 240.906 94.938C240.126 94.062 239.736 92.784 239.736 91.104V88.296ZM244.164 94.884C245.136 94.884 245.862 94.548 246.342 93.876C246.834 93.192 247.08 92.232 247.08 90.996V88.404C247.08 87.828 247.02 87.306 246.9 86.838C246.78 86.358 246.594 85.95 246.342 85.614C246.102 85.266 245.796 84.996 245.424 84.804C245.064 84.612 244.644 84.516 244.164 84.516C243.672 84.516 243.246 84.612 242.886 84.804C242.526 84.996 242.22 85.266 241.968 85.614C241.728 85.95 241.548 86.358 241.428 86.838C241.308 87.306 241.248 87.828 241.248 88.404V90.996C241.248 92.232 241.488 93.192 241.968 93.876C242.46 94.548 243.192 94.884 244.164 94.884ZM243.012 89.7C243.012 89.388 243.126 89.118 243.354 88.89C243.582 88.662 243.852 88.548 244.164 88.548C244.476 88.548 244.746 88.662 244.974 88.89C245.202 89.118 245.316 89.388 245.316 89.7C245.316 90.012 245.202 90.282 244.974 90.51C244.746 90.738 244.476 90.852 244.164 90.852C243.852 90.852 243.582 90.738 243.354 90.51C243.126 90.282 243.012 90.012 243.012 89.7ZM253.565 94.992C253.565 94.644 253.685 94.35 253.925 94.11C254.177 93.858 254.477 93.732 254.825 93.732C255.173 93.732 255.467 93.858 255.707 94.11C255.959 94.35 256.085 94.644 256.085 94.992C256.085 95.34 255.959 95.64 255.707 95.892C255.467 96.132 255.173 96.252 254.825 96.252C254.477 96.252 254.177 96.132 253.925 95.892C253.685 95.64 253.565 95.34 253.565 94.992ZM269.771 94.596V96H261.239V93.84C261.239 93.264 261.335 92.766 261.527 92.346C261.719 91.914 261.989 91.548 262.337 91.248C262.697 90.936 263.129 90.678 263.633 90.474C264.137 90.27 264.707 90.096 265.343 89.952C266.411 89.712 267.179 89.37 267.647 88.926C268.127 88.482 268.367 87.936 268.367 87.288V87.18C268.367 86.856 268.313 86.538 268.205 86.226C268.097 85.914 267.929 85.632 267.701 85.38C267.473 85.128 267.179 84.93 266.819 84.786C266.471 84.63 266.051 84.552 265.559 84.552C264.635 84.552 263.915 84.834 263.399 85.398C262.895 85.962 262.643 86.712 262.643 87.648V88.44H261.131V87.54C261.131 86.964 261.227 86.412 261.419 85.884C261.611 85.356 261.893 84.888 262.265 84.48C262.637 84.072 263.099 83.748 263.651 83.508C264.203 83.268 264.839 83.148 265.559 83.148C266.291 83.148 266.927 83.262 267.467 83.49C268.007 83.706 268.457 84 268.817 84.372C269.177 84.732 269.441 85.146 269.609 85.614C269.789 86.07 269.879 86.538 269.879 87.018V87.342C269.879 88.302 269.579 89.124 268.979 89.808C268.379 90.48 267.419 90.96 266.099 91.248C264.947 91.5 264.101 91.836 263.561 92.256C263.021 92.664 262.751 93.264 262.751 94.056V94.596H269.771Z" fill="#AAAAAA"/>
<g filter="url(#filter2_dd_1_68)">
<path d="M212.251 122.848C212.767 122.848 213.205 122.764 213.565 122.596C213.937 122.416 214.237 122.182 214.465 121.894C214.705 121.594 214.879 121.258 214.987 120.886C215.107 120.502 215.167 120.1 215.167 119.68V119.464H216.679V119.68C216.679 120.316 216.583 120.916 216.391 121.48C216.199 122.032 215.917 122.518 215.545 122.938C215.173 123.346 214.711 123.67 214.159 123.91C213.607 124.138 212.971 124.252 212.251 124.252C210.859 124.252 209.773 123.814 208.993 122.938C208.213 122.062 207.823 120.784 207.823 119.104V116.296C207.823 114.664 208.213 113.398 208.993 112.498C209.773 111.598 210.859 111.148 212.251 111.148C212.971 111.148 213.607 111.268 214.159 111.508C214.711 111.736 215.173 112.06 215.545 112.48C215.917 112.888 216.199 113.374 216.391 113.938C216.583 114.49 216.679 115.084 216.679 115.72V115.936H215.167V115.72C215.155 115.312 215.089 114.916 214.969 114.532C214.861 114.148 214.687 113.812 214.447 113.524C214.219 113.224 213.925 112.99 213.565 112.822C213.205 112.642 212.767 112.552 212.251 112.552C211.279 112.552 210.547 112.906 210.055 113.614C209.575 114.322 209.335 115.252 209.335 116.404V118.996C209.335 120.232 209.575 121.186 210.055 121.858C210.547 122.518 211.279 122.848 212.251 122.848ZM226.783 124H225.271V119.788C225.271 119.476 225.199 119.236 225.055 119.068C224.911 118.9 224.659 118.816 224.299 118.816H220.375V124H218.863V111.4H223.363C224.011 111.4 224.575 111.496 225.055 111.688C225.535 111.868 225.931 112.114 226.243 112.426C226.567 112.738 226.807 113.104 226.963 113.524C227.131 113.932 227.215 114.364 227.215 114.82V115.36C227.215 115.828 227.083 116.296 226.819 116.764C226.567 117.232 226.171 117.592 225.631 117.844V118.06C225.991 118.12 226.273 118.264 226.477 118.492C226.681 118.72 226.783 119.044 226.783 119.464V124ZM220.375 117.412H223.183C224.035 117.412 224.665 117.232 225.073 116.872C225.493 116.5 225.703 115.96 225.703 115.252V114.928C225.703 114.292 225.493 113.782 225.073 113.398C224.665 113.002 224.035 112.804 223.183 112.804H220.375V117.412ZM232.746 119.572H232.422L228.48 111.4H230.172L233.394 118.276H233.61L236.832 111.4H238.524L234.582 119.572H234.258V124H232.746V119.572ZM241.698 118.816V124H240.186V111.4H244.686C245.334 111.4 245.898 111.496 246.378 111.688C246.858 111.868 247.254 112.114 247.566 112.426C247.89 112.738 248.13 113.104 248.286 113.524C248.454 113.932 248.538 114.364 248.538 114.82V115.36C248.538 115.816 248.454 116.254 248.286 116.674C248.13 117.094 247.89 117.466 247.566 117.79C247.242 118.102 246.84 118.354 246.36 118.546C245.88 118.726 245.322 118.816 244.686 118.816H241.698ZM241.698 117.412H244.506C246.186 117.412 247.026 116.692 247.026 115.252V114.928C247.026 114.292 246.816 113.782 246.396 113.398C245.988 113.002 245.358 112.804 244.506 112.804H241.698V117.412ZM250.397 111.4H259.253V112.804H255.581V124H254.069V112.804H250.397V111.4ZM261.059 116.296C261.059 114.664 261.449 113.398 262.229 112.498C263.009 111.598 264.095 111.148 265.487 111.148C266.879 111.148 267.965 111.598 268.745 112.498C269.525 113.398 269.915 114.664 269.915 116.296V119.104C269.915 120.784 269.525 122.062 268.745 122.938C267.965 123.814 266.879 124.252 265.487 124.252C264.095 124.252 263.009 123.814 262.229 122.938C261.449 122.062 261.059 120.784 261.059 119.104V116.296ZM265.487 122.848C266.459 122.848 267.185 122.518 267.665 121.858C268.157 121.186 268.403 120.232 268.403 118.996V116.404C268.403 115.252 268.157 114.322 267.665 113.614C267.185 112.906 266.459 112.552 265.487 112.552C264.515 112.552 263.783 112.906 263.291 113.614C262.811 114.322 262.571 115.252 262.571 116.404V118.996C262.571 120.232 262.811 121.186 263.291 121.858C263.783 122.518 264.515 122.848 265.487 122.848Z" fill="#D1D3FF"/>
</g>
<defs>
<filter id="filter0_d_1_68" x="0" y="0" width="50" height="50" filterUnits="userSpaceOnUse" color-interpolation-filters="sRGB">
<feFlood flood-opacity="0" result="BackgroundImageFix"/>
<feColorMatrix in="SourceAlpha" type="matrix" values="0 0 0 0 0 0 0 0 0 0 0 0 0 0 0 0 0 0 127 0" result="hardAlpha"/>
<feMorphology radius="7" operator="dilate" in="SourceAlpha" result="effect1_dropShadow_1_68"/>
<feOffset/>
<feGaussianBlur stdDeviation="8"/>
<feComposite in2="hardAlpha" operator="out"/>
<feColorMatrix type="matrix" values="0 0 0 0 0.819608 0 0 0 0 0.827451 0 0 0 0 1 0 0 0 0.25 0"/>
<feBlend mode="normal" in2="BackgroundImageFix" result="effect1_dropShadow_1_68"/>
<feBlend mode="normal" in="SourceGraphic" in2="effect1_dropShadow_1_68" result="shape"/>
</filter>
<filter id="filter1_d_1_68" x="114.096" y="126.5" width="169" height="25" filterUnits="userSpaceOnUse" color-interpolation-filters="sRGB">
<feFlood flood-opacity="0" result="BackgroundImageFix"/>
<feColorMatrix in="SourceAlpha" type="matrix" values="0 0 0 0 0 0 0 0 0 0 0 0 0 0 0 0 0 0 127 0" result="hardAlpha"/>
<feOffset dy="4"/>
<feGaussianBlur stdDeviation="6"/>
<feComposite in2="hardAlpha" operator="out"/>
<feColorMatrix type="matrix" values="0 0 0 0 1 0 0 0 0 1 0 0 0 0 1 0 0 0 0.25 0"/>
<feBlend mode="normal" in2="BackgroundImageFix" result="effect1_dropShadow_1_68"/>
<feBlend mode="normal" in="SourceGraphic" in2="effect1_dropShadow_1_68" result="shape"/>
</filter>
<filter id="filter2_dd_1_68" x="187.823" y="91.1479" width="102.091" height="57.104" filterUnits="userSpaceOnUse" color-interpolation-filters="sRGB">
<feFlood flood-opacity="0" result="BackgroundImageFix"/>
<feColorMatrix in="SourceAlpha" type="matrix" values="0 0 0 0 0 0 0 0 0 0 0 0 0 0 0 0 0 0 127 0" result="hardAlpha"/>
<feOffset/>
<feGaussianBlur stdDeviation="10"/>
<feComposite in2="hardAlpha" operator="out"/>
<feColorMatrix type="matrix" values="0 0 0 0 1 0 0 0 0 1 0 0 0 0 1 0 0 0 0.5 0"/>
<feBlend mode="normal" in2="BackgroundImageFix" result="effect1_dropShadow_1_68"/>
<feColorMatrix in="SourceAlpha" type="matrix" values="0 0 0 0 0 0 0 0 0 0 0 0 0 0 0 0 0 0 127 0" result="hardAlpha"/>
<feOffset dy="4"/>
<feGaussianBlur stdDeviation="10"/>
<feComposite in2="hardAlpha" operator="out"/>
<feColorMatrix type="matrix" values="0 0 0 0 1 0 0 0 0 1 0 0 0 0 1 0 0 0 0.25 0"/>
<feBlend mode="normal" in2="effect1_dropShadow_1_68" result="effect2_dropShadow_1_68"/>
<feBlend mode="normal" in="SourceGraphic" in2="effect2_dropShadow_1_68" result="shape"/>
</filter>
<linearGradient id="paint0_linear_1_68" x1="271.096" y1="175.353" x2="126.096" y2="175.353" gradientUnits="userSpaceOnUse">
<stop stop-color="white" stop-opacity="0.12"/>
<stop offset="1" stop-color="white"/>
</linearGradient>
</defs>
</svg>
