<svg width="164" height="219" viewBox="0 0 164 219" fill="none" xmlns="http://www.w3.org/2000/svg">
<path d="M90.506 2.492L91.766 2.888L86.528 18.908L85.25 18.512L90.506 2.492ZM101.167 2.492L102.427 2.888L97.1895 18.908L95.9115 18.512L101.167 2.492ZM116.064 9.296C116.064 7.664 116.454 6.398 117.234 5.498C118.014 4.598 119.1 4.148 120.492 4.148C121.884 4.148 122.97 4.598 123.75 5.498C124.53 6.398 124.92 7.664 124.92 9.296V12.104C124.92 13.784 124.53 15.062 123.75 15.938C122.97 16.814 121.884 17.252 120.492 17.252C119.1 17.252 118.014 16.814 117.234 15.938C116.454 15.062 116.064 13.784 116.064 12.104V9.296ZM120.492 15.884C121.464 15.884 122.19 15.548 122.67 14.876C123.162 14.192 123.408 13.232 123.408 11.996V9.404C123.408 8.828 123.348 8.306 123.228 7.838C123.108 7.358 122.922 6.95 122.67 6.614C122.43 6.266 122.124 5.996 121.752 5.804C121.392 5.612 120.972 5.516 120.492 5.516C120 5.516 119.574 5.612 119.214 5.804C118.854 5.996 118.548 6.266 118.296 6.614C118.056 6.95 117.876 7.358 117.756 7.838C117.636 8.306 117.576 8.828 117.576 9.404V11.996C117.576 13.232 117.816 14.192 118.296 14.876C118.788 15.548 119.52 15.884 120.492 15.884ZM119.34 10.7C119.34 10.388 119.454 10.118 119.682 9.89C119.91 9.662 120.18 9.548 120.492 9.548C120.804 9.548 121.074 9.662 121.302 9.89C121.53 10.118 121.644 10.388 121.644 10.7C121.644 11.012 121.53 11.282 121.302 11.51C121.074 11.738 120.804 11.852 120.492 11.852C120.18 11.852 119.91 11.738 119.682 11.51C119.454 11.282 119.34 11.012 119.34 10.7ZM129.894 15.992C129.894 15.644 130.014 15.35 130.254 15.11C130.506 14.858 130.806 14.732 131.154 14.732C131.502 14.732 131.796 14.858 132.036 15.11C132.288 15.35 132.414 15.644 132.414 15.992C132.414 16.34 132.288 16.64 132.036 16.892C131.796 17.132 131.502 17.252 131.154 17.252C130.806 17.252 130.506 17.132 130.254 16.892C130.014 16.64 129.894 16.34 129.894 15.992ZM146.099 15.596V17H137.567V14.84C137.567 14.264 137.663 13.766 137.855 13.346C138.047 12.914 138.317 12.548 138.665 12.248C139.025 11.936 139.457 11.678 139.961 11.474C140.465 11.27 141.035 11.096 141.671 10.952C142.739 10.712 143.507 10.37 143.975 9.926C144.455 9.482 144.695 8.936 144.695 8.288V8.18C144.695 7.856 144.641 7.538 144.533 7.226C144.425 6.914 144.257 6.632 144.029 6.38C143.801 6.128 143.507 5.93 143.147 5.786C142.799 5.63 142.379 5.552 141.887 5.552C140.963 5.552 140.243 5.834 139.727 6.398C139.223 6.962 138.971 7.712 138.971 8.648V9.44H137.459V8.54C137.459 7.964 137.555 7.412 137.747 6.884C137.939 6.356 138.221 5.888 138.593 5.48C138.965 5.072 139.427 4.748 139.979 4.508C140.531 4.268 141.167 4.148 141.887 4.148C142.619 4.148 143.255 4.262 143.795 4.49C144.335 4.706 144.785 5 145.145 5.372C145.505 5.732 145.769 6.146 145.937 6.614C146.117 7.07 146.207 7.538 146.207 8.018V8.342C146.207 9.302 145.907 10.124 145.307 10.808C144.707 11.48 143.747 11.96 142.427 12.248C141.275 12.5 140.429 12.836 139.889 13.256C139.349 13.664 139.079 14.264 139.079 15.056V15.596H146.099Z" fill="#AAAAAA"/>
<g filter="url(#filter0_dd_66_661)">
<path d="M88.58 43.848C89.096 43.848 89.534 43.764 89.894 43.596C90.266 43.416 90.566 43.182 90.794 42.894C91.034 42.594 91.208 42.258 91.316 41.886C91.436 41.502 91.496 41.1 91.496 40.68V40.464H93.008V40.68C93.008 41.316 92.912 41.916 92.72 42.48C92.528 43.032 92.246 43.518 91.874 43.938C91.502 44.346 91.04 44.67 90.488 44.91C89.936 45.138 89.3 45.252 88.58 45.252C87.188 45.252 86.102 44.814 85.322 43.938C84.542 43.062 84.152 41.784 84.152 40.104V37.296C84.152 35.664 84.542 34.398 85.322 33.498C86.102 32.598 87.188 32.148 88.58 32.148C89.3 32.148 89.936 32.268 90.488 32.508C91.04 32.736 91.502 33.06 91.874 33.48C92.246 33.888 92.528 34.374 92.72 34.938C92.912 35.49 93.008 36.084 93.008 36.72V36.936H91.496V36.72C91.484 36.312 91.418 35.916 91.298 35.532C91.19 35.148 91.016 34.812 90.776 34.524C90.548 34.224 90.254 33.99 89.894 33.822C89.534 33.642 89.096 33.552 88.58 33.552C87.608 33.552 86.876 33.906 86.384 34.614C85.904 35.322 85.664 36.252 85.664 37.404V39.996C85.664 41.232 85.904 42.186 86.384 42.858C86.876 43.518 87.608 43.848 88.58 43.848ZM103.111 45H101.599V40.788C101.599 40.476 101.527 40.236 101.383 40.068C101.239 39.9 100.987 39.816 100.627 39.816H96.7035V45H95.1915V32.4H99.6915C100.339 32.4 100.903 32.496 101.383 32.688C101.863 32.868 102.259 33.114 102.571 33.426C102.895 33.738 103.135 34.104 103.291 34.524C103.459 34.932 103.543 35.364 103.543 35.82V36.36C103.543 36.828 103.411 37.296 103.147 37.764C102.895 38.232 102.499 38.592 101.959 38.844V39.06C102.319 39.12 102.601 39.264 102.805 39.492C103.009 39.72 103.111 40.044 103.111 40.464V45ZM96.7035 38.412H99.5115C100.363 38.412 100.993 38.232 101.401 37.872C101.821 37.5 102.031 36.96 102.031 36.252V35.928C102.031 35.292 101.821 34.782 101.401 34.398C100.993 34.002 100.363 33.804 99.5115 33.804H96.7035V38.412ZM109.075 40.572H108.751L104.809 32.4H106.501L109.723 39.276H109.939L113.161 32.4H114.853L110.911 40.572H110.587V45H109.075V40.572ZM118.026 39.816V45H116.514V32.4H121.014C121.662 32.4 122.226 32.496 122.706 32.688C123.186 32.868 123.582 33.114 123.894 33.426C124.218 33.738 124.458 34.104 124.614 34.524C124.782 34.932 124.866 35.364 124.866 35.82V36.36C124.866 36.816 124.782 37.254 124.614 37.674C124.458 38.094 124.218 38.466 123.894 38.79C123.57 39.102 123.168 39.354 122.688 39.546C122.208 39.726 121.65 39.816 121.014 39.816H118.026ZM118.026 38.412H120.834C122.514 38.412 123.354 37.692 123.354 36.252V35.928C123.354 35.292 123.144 34.782 122.724 34.398C122.316 34.002 121.686 33.804 120.834 33.804H118.026V38.412ZM126.726 32.4H135.582V33.804H131.91V45H130.398V33.804H126.726V32.4ZM137.387 37.296C137.387 35.664 137.777 34.398 138.557 33.498C139.337 32.598 140.423 32.148 141.815 32.148C143.207 32.148 144.293 32.598 145.073 33.498C145.853 34.398 146.243 35.664 146.243 37.296V40.104C146.243 41.784 145.853 43.062 145.073 43.938C144.293 44.814 143.207 45.252 141.815 45.252C140.423 45.252 139.337 44.814 138.557 43.938C137.777 43.062 137.387 41.784 137.387 40.104V37.296ZM141.815 43.848C142.787 43.848 143.513 43.518 143.993 42.858C144.485 42.186 144.731 41.232 144.731 39.996V37.404C144.731 36.252 144.485 35.322 143.993 34.614C143.513 33.906 142.787 33.552 141.815 33.552C140.843 33.552 140.111 33.906 139.619 34.614C139.139 35.322 138.899 36.252 138.899 37.404V39.996C138.899 41.232 139.139 42.186 139.619 42.858C140.111 43.518 140.843 43.848 141.815 43.848Z" fill="#D1D3FF"/>
</g>
<path d="M26 191.369L81.6197 56.3747" stroke="#FAFAFA" stroke-opacity="0.2" stroke-dasharray="2 2"/>
<g filter="url(#filter1_d_66_661)">
<rect x="23" y="192" width="4" height="4" rx="2" fill="#D1D3FF"/>
</g>
<g filter="url(#filter2_d_66_661)">
<path d="M83 56H148" stroke="url(#paint0_linear_66_661)" stroke-opacity="0.2" stroke-dasharray="2.44 2.44" shape-rendering="crispEdges"/>
</g>
<defs>
<filter id="filter0_dd_66_661" x="64.1519" y="12.1479" width="102.092" height="57.104" filterUnits="userSpaceOnUse" color-interpolation-filters="sRGB">
<feFlood flood-opacity="0" result="BackgroundImageFix"/>
<feColorMatrix in="SourceAlpha" type="matrix" values="0 0 0 0 0 0 0 0 0 0 0 0 0 0 0 0 0 0 127 0" result="hardAlpha"/>
<feOffset/>
<feGaussianBlur stdDeviation="10"/>
<feComposite in2="hardAlpha" operator="out"/>
<feColorMatrix type="matrix" values="0 0 0 0 1 0 0 0 0 1 0 0 0 0 1 0 0 0 0.5 0"/>
<feBlend mode="normal" in2="BackgroundImageFix" result="effect1_dropShadow_66_661"/>
<feColorMatrix in="SourceAlpha" type="matrix" values="0 0 0 0 0 0 0 0 0 0 0 0 0 0 0 0 0 0 127 0" result="hardAlpha"/>
<feOffset dy="4"/>
<feGaussianBlur stdDeviation="10"/>
<feComposite in2="hardAlpha" operator="out"/>
<feColorMatrix type="matrix" values="0 0 0 0 1 0 0 0 0 1 0 0 0 0 1 0 0 0 0.25 0"/>
<feBlend mode="normal" in2="effect1_dropShadow_66_661" result="effect2_dropShadow_66_661"/>
<feBlend mode="normal" in="SourceGraphic" in2="effect2_dropShadow_66_661" result="shape"/>
</filter>
<filter id="filter1_d_66_661" x="0" y="169" width="50" height="50" filterUnits="userSpaceOnUse" color-interpolation-filters="sRGB">
<feFlood flood-opacity="0" result="BackgroundImageFix"/>
<feColorMatrix in="SourceAlpha" type="matrix" values="0 0 0 0 0 0 0 0 0 0 0 0 0 0 0 0 0 0 127 0" result="hardAlpha"/>
<feMorphology radius="7" operator="dilate" in="SourceAlpha" result="effect1_dropShadow_66_661"/>
<feOffset/>
<feGaussianBlur stdDeviation="8"/>
<feComposite in2="hardAlpha" operator="out"/>
<feColorMatrix type="matrix" values="0 0 0 0 0.819608 0 0 0 0 0.827451 0 0 0 0 1 0 0 0 0.25 0"/>
<feBlend mode="normal" in2="BackgroundImageFix" result="effect1_dropShadow_66_661"/>
<feBlend mode="normal" in="SourceGraphic" in2="effect1_dropShadow_66_661" result="shape"/>
</filter>
<filter id="filter2_d_66_661" x="71" y="47.5" width="89" height="25" filterUnits="userSpaceOnUse" color-interpolation-filters="sRGB">
<feFlood flood-opacity="0" result="BackgroundImageFix"/>
<feColorMatrix in="SourceAlpha" type="matrix" values="0 0 0 0 0 0 0 0 0 0 0 0 0 0 0 0 0 0 127 0" result="hardAlpha"/>
<feOffset dy="4"/>
<feGaussianBlur stdDeviation="6"/>
<feComposite in2="hardAlpha" operator="out"/>
<feColorMatrix type="matrix" values="0 0 0 0 1 0 0 0 0 1 0 0 0 0 1 0 0 0 0.25 0"/>
<feBlend mode="normal" in2="BackgroundImageFix" result="effect1_dropShadow_66_661"/>
<feBlend mode="normal" in="SourceGraphic" in2="effect1_dropShadow_66_661" result="shape"/>
</filter>
<linearGradient id="paint0_linear_66_661" x1="148" y1="96.3531" x2="83" y2="96.353" gradientUnits="userSpaceOnUse">
<stop stop-color="white" stop-opacity="0.12"/>
<stop offset="1" stop-color="white"/>
</linearGradient>
</defs>
</svg>
