<svg width="214" height="126" viewBox="0 0 214 126" fill="none" xmlns="http://www.w3.org/2000/svg">
<path d="M23.506 2.492L24.766 2.888L19.528 18.908L18.25 18.512L23.506 2.492ZM34.1675 2.492L35.4275 2.888L30.1895 18.908L28.9115 18.512L34.1675 2.492ZM49.0645 9.296C49.0645 7.664 49.4545 6.398 50.2345 5.498C51.0145 4.598 52.1005 4.148 53.4925 4.148C54.8845 4.148 55.9705 4.598 56.7505 5.498C57.5305 6.398 57.9205 7.664 57.9205 9.296V12.104C57.9205 13.784 57.5305 15.062 56.7505 15.938C55.9705 16.814 54.8845 17.252 53.4925 17.252C52.1005 17.252 51.0145 16.814 50.2345 15.938C49.4545 15.062 49.0645 13.784 49.0645 12.104V9.296ZM53.4925 15.884C54.4645 15.884 55.1905 15.548 55.6705 14.876C56.1625 14.192 56.4085 13.232 56.4085 11.996V9.404C56.4085 8.828 56.3485 8.306 56.2285 7.838C56.1085 7.358 55.9225 6.95 55.6705 6.614C55.4305 6.266 55.1245 5.996 54.7525 5.804C54.3925 5.612 53.9725 5.516 53.4925 5.516C53.0005 5.516 52.5745 5.612 52.2145 5.804C51.8545 5.996 51.5485 6.266 51.2965 6.614C51.0565 6.95 50.8765 7.358 50.7565 7.838C50.6365 8.306 50.5765 8.828 50.5765 9.404V11.996C50.5765 13.232 50.8165 14.192 51.2965 14.876C51.7885 15.548 52.5205 15.884 53.4925 15.884ZM52.3405 10.7C52.3405 10.388 52.4545 10.118 52.6825 9.89C52.9105 9.662 53.1805 9.548 53.4925 9.548C53.8045 9.548 54.0745 9.662 54.3025 9.89C54.5305 10.118 54.6445 10.388 54.6445 10.7C54.6445 11.012 54.5305 11.282 54.3025 11.51C54.0745 11.738 53.8045 11.852 53.4925 11.852C53.1805 11.852 52.9105 11.738 52.6825 11.51C52.4545 11.282 52.3405 11.012 52.3405 10.7ZM62.8939 15.992C62.8939 15.644 63.0139 15.35 63.2539 15.11C63.5059 14.858 63.8059 14.732 64.1539 14.732C64.5019 14.732 64.7959 14.858 65.0359 15.11C65.2879 15.35 65.4139 15.644 65.4139 15.992C65.4139 16.34 65.2879 16.64 65.0359 16.892C64.7959 17.132 64.5019 17.252 64.1539 17.252C63.8059 17.252 63.5059 17.132 63.2539 16.892C63.0139 16.64 62.8939 16.34 62.8939 15.992ZM74.1494 15.596V5.066H73.9334L71.8634 9.8H70.3694V9.692L72.7274 4.4H75.6614V15.596H79.2254V17H70.5854V15.596H74.1494Z" fill="#AAAAAA"/>
<g filter="url(#filter0_dd_66_632)">
<path d="M25.54 45H22.786L21.616 33.048H21.4L20.23 45H17.476L16.198 32.4H17.566L18.772 44.352H18.988L20.122 32.4H22.894L24.028 44.352H24.244L25.45 32.4H26.818L25.54 45ZM28.3535 32.4H35.9855V33.804H29.8655V37.98H35.8775V39.384H29.8655V43.596H36.0935V45H28.3535V32.4ZM38.349 43.596H39.429V33.804H38.349V32.4H43.443C44.043 32.4 44.571 32.484 45.027 32.652C45.495 32.82 45.885 33.048 46.197 33.336C46.521 33.624 46.761 33.972 46.917 34.38C47.085 34.776 47.169 35.208 47.169 35.676V35.892C47.169 36.24 47.115 36.558 47.007 36.846C46.899 37.134 46.749 37.392 46.557 37.62C46.365 37.848 46.137 38.046 45.873 38.214C45.621 38.37 45.345 38.49 45.045 38.574V38.79C45.645 38.958 46.149 39.282 46.557 39.762C46.965 40.23 47.169 40.806 47.169 41.49V41.706C47.169 42.174 47.085 42.612 46.917 43.02C46.761 43.416 46.521 43.764 46.197 44.064C45.885 44.352 45.495 44.58 45.027 44.748C44.571 44.916 44.043 45 43.443 45H38.349V43.596ZM40.941 43.596H43.335C44.043 43.596 44.619 43.422 45.063 43.074C45.507 42.714 45.729 42.222 45.729 41.598V41.49C45.729 40.842 45.519 40.332 45.099 39.96C44.679 39.576 44.109 39.384 43.389 39.384H40.941V43.596ZM40.941 37.98H43.389C44.109 37.98 44.679 37.794 45.099 37.422C45.519 37.05 45.729 36.54 45.729 35.892V35.784C45.729 35.172 45.507 34.692 45.063 34.344C44.619 33.984 44.043 33.804 43.335 33.804H40.941V37.98ZM52.2505 38.736V36.648L56.3545 34.02V33.804H49.2265V32.4H57.6505V34.704L53.5465 37.332V37.548H54.2665C54.7465 37.548 55.2085 37.626 55.6525 37.782C56.0965 37.938 56.4865 38.166 56.8225 38.466C57.1705 38.766 57.4465 39.138 57.6505 39.582C57.8665 40.014 57.9745 40.518 57.9745 41.094V41.418C57.9745 41.958 57.8665 42.462 57.6505 42.93C57.4345 43.398 57.1345 43.806 56.7505 44.154C56.3665 44.49 55.9105 44.76 55.3825 44.964C54.8665 45.156 54.3025 45.252 53.6905 45.252C52.9825 45.252 52.3465 45.144 51.7825 44.928C51.2185 44.712 50.7385 44.418 50.3425 44.046C49.9465 43.662 49.6405 43.218 49.4245 42.714C49.2205 42.198 49.1185 41.652 49.1185 41.076V40.104H50.6305V40.968C50.6305 41.424 50.7025 41.832 50.8465 42.192C51.0025 42.54 51.2125 42.84 51.4765 43.092C51.7525 43.332 52.0765 43.518 52.4485 43.65C52.8205 43.782 53.2225 43.848 53.6545 43.848C54.0505 43.848 54.4165 43.782 54.7525 43.65C55.1005 43.518 55.4005 43.338 55.6525 43.11C55.9045 42.87 56.1025 42.594 56.2465 42.282C56.3905 41.958 56.4625 41.616 56.4625 41.256V41.148C56.4625 40.392 56.2225 39.804 55.7425 39.384C55.2625 38.952 54.6625 38.736 53.9425 38.736H52.2505ZM73.6094 38.952H79.2254V45H77.8214V43.488H77.6054C77.4014 44.016 77.0414 44.442 76.5254 44.766C76.0094 45.09 75.4094 45.252 74.7254 45.252C73.3694 45.252 72.3014 44.814 71.5214 43.938C70.7534 43.062 70.3694 41.784 70.3694 40.104V37.296C70.3694 35.664 70.7594 34.398 71.5394 33.498C72.3194 32.598 73.4054 32.148 74.7974 32.148C75.5174 32.148 76.1534 32.268 76.7054 32.508C77.2574 32.736 77.7194 33.06 78.0914 33.48C78.4634 33.888 78.7454 34.374 78.9374 34.938C79.1294 35.49 79.2254 36.084 79.2254 36.72V36.936H77.7134V36.72C77.7134 36.312 77.6534 35.916 77.5334 35.532C77.4254 35.148 77.2514 34.812 77.0114 34.524C76.7834 34.224 76.4834 33.99 76.1114 33.822C75.7514 33.642 75.3134 33.552 74.7974 33.552C73.8254 33.552 73.0934 33.906 72.6014 34.614C72.1214 35.322 71.8814 36.252 71.8814 37.404V39.996C71.8814 41.232 72.1214 42.186 72.6014 42.858C73.0934 43.518 73.8374 43.848 74.8334 43.848C75.7334 43.848 76.4354 43.56 76.9394 42.984C77.4554 42.408 77.7134 41.604 77.7134 40.572V40.356H73.6094V38.952ZM88.1769 41.868H82.7769L81.8589 45H80.2389L84.0549 32.4H86.8989L90.7149 45H89.0949L88.1769 41.868ZM85.3689 33.048L83.1909 40.464H87.7629L85.5849 33.048H85.3689ZM91.4584 32.4H94.3384L96.0304 44.352H96.2464L97.9384 32.4H100.818V45H99.4144V33.048H99.1984L97.5064 45H94.7704L93.0784 33.048H92.8624V45H91.4584V32.4ZM102.804 32.4H110.796V33.804H107.556V43.596H110.796V45H102.804V43.596H106.044V33.804H102.804V32.4ZM119.927 44.352H120.143V32.4H121.655V45H118.631L114.995 33.048H114.779V45H113.267V32.4H116.291L119.927 44.352ZM126.917 38.952H132.533V45H131.129V43.488H130.913C130.709 44.016 130.349 44.442 129.833 44.766C129.317 45.09 128.717 45.252 128.033 45.252C126.677 45.252 125.609 44.814 124.829 43.938C124.061 43.062 123.677 41.784 123.677 40.104V37.296C123.677 35.664 124.067 34.398 124.847 33.498C125.627 32.598 126.713 32.148 128.105 32.148C128.825 32.148 129.461 32.268 130.013 32.508C130.565 32.736 131.027 33.06 131.399 33.48C131.771 33.888 132.053 34.374 132.245 34.938C132.437 35.49 132.533 36.084 132.533 36.72V36.936H131.021V36.72C131.021 36.312 130.961 35.916 130.841 35.532C130.733 35.148 130.559 34.812 130.319 34.524C130.091 34.224 129.791 33.99 129.419 33.822C129.059 33.642 128.621 33.552 128.105 33.552C127.133 33.552 126.401 33.906 125.909 34.614C125.429 35.322 125.189 36.252 125.189 37.404V39.996C125.189 41.232 125.429 42.186 125.909 42.858C126.401 43.518 127.145 43.848 128.141 43.848C129.041 43.848 129.743 43.56 130.247 42.984C130.763 42.408 131.021 41.604 131.021 40.572V40.356H126.917V38.952Z" fill="#D1D3FF"/>
</g>
<g filter="url(#filter1_d_66_632)">
<path d="M134 56H16" stroke="url(#paint0_linear_66_632)" stroke-opacity="0.2" stroke-dasharray="2.44 2.44" shape-rendering="crispEdges"/>
</g>
<path d="M187.076 98.3185L135.874 56.6605" stroke="#FAFAFA" stroke-opacity="0.2" stroke-dasharray="2 2"/>
<g filter="url(#filter2_d_66_632)">
<rect width="4" height="4" rx="2" transform="matrix(-1 0 0 1 191 99)" fill="#D1D3FF"/>
</g>
<defs>
<filter id="filter0_dd_66_632" x="-3.80176" y="12.1479" width="156.334" height="57.104" filterUnits="userSpaceOnUse" color-interpolation-filters="sRGB">
<feFlood flood-opacity="0" result="BackgroundImageFix"/>
<feColorMatrix in="SourceAlpha" type="matrix" values="0 0 0 0 0 0 0 0 0 0 0 0 0 0 0 0 0 0 127 0" result="hardAlpha"/>
<feOffset/>
<feGaussianBlur stdDeviation="10"/>
<feComposite in2="hardAlpha" operator="out"/>
<feColorMatrix type="matrix" values="0 0 0 0 1 0 0 0 0 1 0 0 0 0 1 0 0 0 0.5 0"/>
<feBlend mode="normal" in2="BackgroundImageFix" result="effect1_dropShadow_66_632"/>
<feColorMatrix in="SourceAlpha" type="matrix" values="0 0 0 0 0 0 0 0 0 0 0 0 0 0 0 0 0 0 127 0" result="hardAlpha"/>
<feOffset dy="4"/>
<feGaussianBlur stdDeviation="10"/>
<feComposite in2="hardAlpha" operator="out"/>
<feColorMatrix type="matrix" values="0 0 0 0 1 0 0 0 0 1 0 0 0 0 1 0 0 0 0.25 0"/>
<feBlend mode="normal" in2="effect1_dropShadow_66_632" result="effect2_dropShadow_66_632"/>
<feBlend mode="normal" in="SourceGraphic" in2="effect2_dropShadow_66_632" result="shape"/>
</filter>
<filter id="filter1_d_66_632" x="4" y="47.5" width="142" height="25" filterUnits="userSpaceOnUse" color-interpolation-filters="sRGB">
<feFlood flood-opacity="0" result="BackgroundImageFix"/>
<feColorMatrix in="SourceAlpha" type="matrix" values="0 0 0 0 0 0 0 0 0 0 0 0 0 0 0 0 0 0 127 0" result="hardAlpha"/>
<feOffset dy="4"/>
<feGaussianBlur stdDeviation="6"/>
<feComposite in2="hardAlpha" operator="out"/>
<feColorMatrix type="matrix" values="0 0 0 0 1 0 0 0 0 1 0 0 0 0 1 0 0 0 0.25 0"/>
<feBlend mode="normal" in2="BackgroundImageFix" result="effect1_dropShadow_66_632"/>
<feBlend mode="normal" in="SourceGraphic" in2="effect1_dropShadow_66_632" result="shape"/>
</filter>
<filter id="filter2_d_66_632" x="164" y="76" width="50" height="50" filterUnits="userSpaceOnUse" color-interpolation-filters="sRGB">
<feFlood flood-opacity="0" result="BackgroundImageFix"/>
<feColorMatrix in="SourceAlpha" type="matrix" values="0 0 0 0 0 0 0 0 0 0 0 0 0 0 0 0 0 0 127 0" result="hardAlpha"/>
<feMorphology radius="7" operator="dilate" in="SourceAlpha" result="effect1_dropShadow_66_632"/>
<feOffset/>
<feGaussianBlur stdDeviation="8"/>
<feComposite in2="hardAlpha" operator="out"/>
<feColorMatrix type="matrix" values="0 0 0 0 0.819608 0 0 0 0 0.827451 0 0 0 0 1 0 0 0 0.25 0"/>
<feBlend mode="normal" in2="BackgroundImageFix" result="effect1_dropShadow_66_632"/>
<feBlend mode="normal" in="SourceGraphic" in2="effect1_dropShadow_66_632" result="shape"/>
</filter>
<linearGradient id="paint0_linear_66_632" x1="16" y1="96.3531" x2="134" y2="96.353" gradientUnits="userSpaceOnUse">
<stop stop-color="white" stop-opacity="0.12"/>
<stop offset="1" stop-color="white"/>
</linearGradient>
</defs>
</svg>
