<svg width="367" height="205" viewBox="0 0 367 205" fill="none" xmlns="http://www.w3.org/2000/svg">
<path d="M26.4103 2.492L27.6703 2.888L22.4323 18.908L21.1543 18.512L26.4103 2.492ZM37.0718 2.492L38.3318 2.888L33.0938 18.908L31.8158 18.512L37.0718 2.492ZM51.9688 9.296C51.9688 7.664 52.3588 6.398 53.1388 5.498C53.9188 4.598 55.0048 4.148 56.3968 4.148C57.7888 4.148 58.8748 4.598 59.6548 5.498C60.4348 6.398 60.8248 7.664 60.8248 9.296V12.104C60.8248 13.784 60.4348 15.062 59.6548 15.938C58.8748 16.814 57.7888 17.252 56.3968 17.252C55.0048 17.252 53.9188 16.814 53.1388 15.938C52.3588 15.062 51.9688 13.784 51.9688 12.104V9.296ZM56.3968 15.884C57.3688 15.884 58.0948 15.548 58.5748 14.876C59.0668 14.192 59.3128 13.232 59.3128 11.996V9.404C59.3128 8.828 59.2528 8.306 59.1328 7.838C59.0128 7.358 58.8268 6.95 58.5748 6.614C58.3348 6.266 58.0288 5.996 57.6568 5.804C57.2968 5.612 56.8768 5.516 56.3968 5.516C55.9048 5.516 55.4788 5.612 55.1188 5.804C54.7588 5.996 54.4528 6.266 54.2008 6.614C53.9608 6.95 53.7808 7.358 53.6608 7.838C53.5408 8.306 53.4808 8.828 53.4808 9.404V11.996C53.4808 13.232 53.7208 14.192 54.2008 14.876C54.6928 15.548 55.4248 15.884 56.3968 15.884ZM55.2448 10.7C55.2448 10.388 55.3588 10.118 55.5868 9.89C55.8148 9.662 56.0848 9.548 56.3968 9.548C56.7088 9.548 56.9788 9.662 57.2068 9.89C57.4348 10.118 57.5488 10.388 57.5488 10.7C57.5488 11.012 57.4348 11.282 57.2068 11.51C56.9788 11.738 56.7088 11.852 56.3968 11.852C56.0848 11.852 55.8148 11.738 55.5868 11.51C55.3588 11.282 55.2448 11.012 55.2448 10.7ZM65.7982 15.992C65.7982 15.644 65.9182 15.35 66.1582 15.11C66.4102 14.858 66.7102 14.732 67.0582 14.732C67.4062 14.732 67.7002 14.858 67.9402 15.11C68.1922 15.35 68.3182 15.644 68.3182 15.992C68.3182 16.34 68.1922 16.64 67.9402 16.892C67.7002 17.132 67.4062 17.252 67.0582 17.252C66.7102 17.252 66.4102 17.132 66.1582 16.892C65.9182 16.64 65.7982 16.34 65.7982 15.992ZM76.4777 10.736V8.648L80.5817 6.02V5.804H73.4537V4.4H81.8777V6.704L77.7737 9.332V9.548H78.4937C78.9737 9.548 79.4357 9.626 79.8797 9.782C80.3237 9.938 80.7137 10.166 81.0497 10.466C81.3977 10.766 81.6737 11.138 81.8777 11.582C82.0937 12.014 82.2017 12.518 82.2017 13.094V13.418C82.2017 13.958 82.0937 14.462 81.8777 14.93C81.6617 15.398 81.3617 15.806 80.9777 16.154C80.5937 16.49 80.1377 16.76 79.6097 16.964C79.0937 17.156 78.5297 17.252 77.9177 17.252C77.2097 17.252 76.5737 17.144 76.0097 16.928C75.4457 16.712 74.9657 16.418 74.5697 16.046C74.1737 15.662 73.8677 15.218 73.6517 14.714C73.4477 14.198 73.3457 13.652 73.3457 13.076V12.104H74.8577V12.968C74.8577 13.424 74.9297 13.832 75.0737 14.192C75.2297 14.54 75.4397 14.84 75.7037 15.092C75.9797 15.332 76.3037 15.518 76.6757 15.65C77.0477 15.782 77.4497 15.848 77.8817 15.848C78.2777 15.848 78.6437 15.782 78.9797 15.65C79.3277 15.518 79.6277 15.338 79.8797 15.11C80.1317 14.87 80.3297 14.594 80.4737 14.282C80.6177 13.958 80.6897 13.616 80.6897 13.256V13.148C80.6897 12.392 80.4497 11.804 79.9697 11.384C79.4897 10.952 78.8897 10.736 78.1697 10.736H76.4777Z" fill="#AAAAAA"/>
<g filter="url(#filter0_dd_1_95)">
<path d="M28.3543 45H26.8423V40.788C26.8423 40.476 26.7703 40.236 26.6263 40.068C26.4823 39.9 26.2303 39.816 25.8703 39.816H21.9463V45H20.4343V32.4H24.9343C25.5823 32.4 26.1463 32.496 26.6263 32.688C27.1063 32.868 27.5023 33.114 27.8143 33.426C28.1383 33.738 28.3783 34.104 28.5343 34.524C28.7023 34.932 28.7863 35.364 28.7863 35.82V36.36C28.7863 36.828 28.6543 37.296 28.3903 37.764C28.1383 38.232 27.7423 38.592 27.2023 38.844V39.06C27.5623 39.12 27.8443 39.264 28.0483 39.492C28.2523 39.72 28.3543 40.044 28.3543 40.464V45ZM21.9463 38.412H24.7543C25.6063 38.412 26.2363 38.232 26.6443 37.872C27.0643 37.5 27.2743 36.96 27.2743 36.252V35.928C27.2743 35.292 27.0643 34.782 26.6443 34.398C26.2363 34.002 25.6063 33.804 24.7543 33.804H21.9463V38.412ZM31.2578 32.4H38.8898V33.804H32.7698V37.98H38.7818V39.384H32.7698V43.596H38.9978V45H31.2578V32.4ZM48.4353 41.868H43.0353L42.1173 45H40.4973L44.3133 32.4H47.1573L50.9733 45H49.3533L48.4353 41.868ZM45.6273 33.048L43.4493 40.464H48.0213L45.8433 33.048H45.6273ZM52.4548 32.4H53.9668V43.596H60.5548V45H52.4548V32.4ZM73.9037 32.4H81.5357V33.804H75.4157V37.98H81.4277V39.384H75.4157V43.596H81.6437V45H73.9037V32.4ZM91.3512 36.036C91.3512 35.628 91.2672 35.268 91.0992 34.956C90.9432 34.644 90.7272 34.386 90.4512 34.182C90.1752 33.978 89.8572 33.822 89.4972 33.714C89.1372 33.606 88.7592 33.552 88.3632 33.552C88.0152 33.552 87.6852 33.6 87.3732 33.696C87.0612 33.78 86.7792 33.906 86.5272 34.074C86.2872 34.242 86.0952 34.452 85.9512 34.704C85.8072 34.944 85.7352 35.226 85.7352 35.55V35.658C85.7352 36.006 85.8072 36.306 85.9512 36.558C86.0952 36.798 86.3052 37.008 86.5812 37.188C86.8692 37.356 87.2232 37.5 87.6432 37.62C88.0632 37.728 88.5552 37.824 89.1192 37.908C90.4392 38.112 91.4112 38.502 92.0352 39.078C92.6592 39.642 92.9712 40.404 92.9712 41.364V41.58C92.9712 42.12 92.8752 42.618 92.6832 43.074C92.5032 43.518 92.2272 43.902 91.8552 44.226C91.4952 44.55 91.0452 44.802 90.5052 44.982C89.9652 45.162 89.3412 45.252 88.6332 45.252C87.8292 45.252 87.1152 45.138 86.4912 44.91C85.8792 44.67 85.3632 44.346 84.9432 43.938C84.5352 43.518 84.2232 43.032 84.0072 42.48C83.7912 41.916 83.6832 41.304 83.6832 40.644V40.104H85.1952V40.536C85.1952 41.64 85.4952 42.468 86.0952 43.02C86.7072 43.572 87.5532 43.848 88.6332 43.848C89.5692 43.848 90.2712 43.644 90.7392 43.236C91.2192 42.816 91.4592 42.264 91.4592 41.58V41.472C91.4592 40.812 91.2132 40.308 90.7212 39.96C90.2412 39.612 89.4552 39.36 88.3632 39.204C87.7272 39.12 87.1512 38.994 86.6352 38.826C86.1312 38.646 85.6992 38.418 85.3392 38.142C84.9792 37.854 84.7032 37.512 84.5112 37.116C84.3192 36.72 84.2232 36.252 84.2232 35.712V35.496C84.2232 35.004 84.3252 34.554 84.5292 34.146C84.7332 33.738 85.0152 33.384 85.3752 33.084C85.7472 32.784 86.1852 32.556 86.6892 32.4C87.2052 32.232 87.7692 32.148 88.3812 32.148C89.0892 32.148 89.7192 32.25 90.2712 32.454C90.8352 32.658 91.3092 32.934 91.6932 33.282C92.0772 33.618 92.3652 34.02 92.5572 34.488C92.7612 34.944 92.8632 35.424 92.8632 35.928V36.684H91.3512V36.036ZM94.6147 32.4H103.471V33.804H99.7987V45H98.2867V33.804H94.6147V32.4ZM112.404 41.868H107.004L106.086 45H104.466L108.282 32.4H111.126L114.942 45H113.322L112.404 41.868ZM109.596 33.048L107.418 40.464H111.99L109.812 33.048H109.596ZM115.938 32.4H124.794V33.804H121.122V45H119.61V33.804H115.938V32.4ZM127.211 32.4H134.843V33.804H128.723V37.98H134.735V39.384H128.723V43.596H134.951V45H127.211V32.4Z" fill="#D1D3FF"/>
</g>
<g filter="url(#filter1_d_1_95)">
<path d="M163.904 56L18.9043 56" stroke="url(#paint0_linear_1_95)" stroke-opacity="0.2" stroke-dasharray="2.44 2.44" shape-rendering="crispEdges"/>
</g>
<path d="M339.564 178.417L166.478 56.0001" stroke="#FAFAFA" stroke-opacity="0.2" stroke-dasharray="2 2"/>
<g filter="url(#filter2_d_1_95)">
<rect x="340" y="178" width="4" height="4" rx="2" fill="#D1D3FF"/>
</g>
<defs>
<filter id="filter0_dd_1_95" x="0.434082" y="12.1479" width="154.517" height="57.104" filterUnits="userSpaceOnUse" color-interpolation-filters="sRGB">
<feFlood flood-opacity="0" result="BackgroundImageFix"/>
<feColorMatrix in="SourceAlpha" type="matrix" values="0 0 0 0 0 0 0 0 0 0 0 0 0 0 0 0 0 0 127 0" result="hardAlpha"/>
<feOffset/>
<feGaussianBlur stdDeviation="10"/>
<feComposite in2="hardAlpha" operator="out"/>
<feColorMatrix type="matrix" values="0 0 0 0 1 0 0 0 0 1 0 0 0 0 1 0 0 0 0.5 0"/>
<feBlend mode="normal" in2="BackgroundImageFix" result="effect1_dropShadow_1_95"/>
<feColorMatrix in="SourceAlpha" type="matrix" values="0 0 0 0 0 0 0 0 0 0 0 0 0 0 0 0 0 0 127 0" result="hardAlpha"/>
<feOffset dy="4"/>
<feGaussianBlur stdDeviation="10"/>
<feComposite in2="hardAlpha" operator="out"/>
<feColorMatrix type="matrix" values="0 0 0 0 1 0 0 0 0 1 0 0 0 0 1 0 0 0 0.25 0"/>
<feBlend mode="normal" in2="effect1_dropShadow_1_95" result="effect2_dropShadow_1_95"/>
<feBlend mode="normal" in="SourceGraphic" in2="effect2_dropShadow_1_95" result="shape"/>
</filter>
<filter id="filter1_d_1_95" x="6.9043" y="47.5" width="169" height="25" filterUnits="userSpaceOnUse" color-interpolation-filters="sRGB">
<feFlood flood-opacity="0" result="BackgroundImageFix"/>
<feColorMatrix in="SourceAlpha" type="matrix" values="0 0 0 0 0 0 0 0 0 0 0 0 0 0 0 0 0 0 127 0" result="hardAlpha"/>
<feOffset dy="4"/>
<feGaussianBlur stdDeviation="6"/>
<feComposite in2="hardAlpha" operator="out"/>
<feColorMatrix type="matrix" values="0 0 0 0 1 0 0 0 0 1 0 0 0 0 1 0 0 0 0.25 0"/>
<feBlend mode="normal" in2="BackgroundImageFix" result="effect1_dropShadow_1_95"/>
<feBlend mode="normal" in="SourceGraphic" in2="effect1_dropShadow_1_95" result="shape"/>
</filter>
<filter id="filter2_d_1_95" x="317" y="155" width="50" height="50" filterUnits="userSpaceOnUse" color-interpolation-filters="sRGB">
<feFlood flood-opacity="0" result="BackgroundImageFix"/>
<feColorMatrix in="SourceAlpha" type="matrix" values="0 0 0 0 0 0 0 0 0 0 0 0 0 0 0 0 0 0 127 0" result="hardAlpha"/>
<feMorphology radius="7" operator="dilate" in="SourceAlpha" result="effect1_dropShadow_1_95"/>
<feOffset/>
<feGaussianBlur stdDeviation="8"/>
<feComposite in2="hardAlpha" operator="out"/>
<feColorMatrix type="matrix" values="0 0 0 0 0.819608 0 0 0 0 0.827451 0 0 0 0 1 0 0 0 0.25 0"/>
<feBlend mode="normal" in2="BackgroundImageFix" result="effect1_dropShadow_1_95"/>
<feBlend mode="normal" in="SourceGraphic" in2="effect1_dropShadow_1_95" result="shape"/>
</filter>
<linearGradient id="paint0_linear_1_95" x1="18.9043" y1="15.6469" x2="163.904" y2="15.6471" gradientUnits="userSpaceOnUse">
<stop stop-color="white" stop-opacity="0.12"/>
<stop offset="1" stop-color="white"/>
</linearGradient>
</defs>
</svg>
