<svg width="197" height="141" viewBox="0 0 197 141" fill="none" xmlns="http://www.w3.org/2000/svg">
<path d="M23.506 2.492L24.766 2.888L19.528 18.908L18.25 18.512L23.506 2.492ZM34.1675 2.492L35.4275 2.888L30.1895 18.908L28.9115 18.512L34.1675 2.492ZM49.0645 9.296C49.0645 7.664 49.4545 6.398 50.2345 5.498C51.0145 4.598 52.1005 4.148 53.4925 4.148C54.8845 4.148 55.9705 4.598 56.7505 5.498C57.5305 6.398 57.9205 7.664 57.9205 9.296V12.104C57.9205 13.784 57.5305 15.062 56.7505 15.938C55.9705 16.814 54.8845 17.252 53.4925 17.252C52.1005 17.252 51.0145 16.814 50.2345 15.938C49.4545 15.062 49.0645 13.784 49.0645 12.104V9.296ZM53.4925 15.884C54.4645 15.884 55.1905 15.548 55.6705 14.876C56.1625 14.192 56.4085 13.232 56.4085 11.996V9.404C56.4085 8.828 56.3485 8.306 56.2285 7.838C56.1085 7.358 55.9225 6.95 55.6705 6.614C55.4305 6.266 55.1245 5.996 54.7525 5.804C54.3925 5.612 53.9725 5.516 53.4925 5.516C53.0005 5.516 52.5745 5.612 52.2145 5.804C51.8545 5.996 51.5485 6.266 51.2965 6.614C51.0565 6.95 50.8765 7.358 50.7565 7.838C50.6365 8.306 50.5765 8.828 50.5765 9.404V11.996C50.5765 13.232 50.8165 14.192 51.2965 14.876C51.7885 15.548 52.5205 15.884 53.4925 15.884ZM52.3405 10.7C52.3405 10.388 52.4545 10.118 52.6825 9.89C52.9105 9.662 53.1805 9.548 53.4925 9.548C53.8045 9.548 54.0745 9.662 54.3025 9.89C54.5305 10.118 54.6445 10.388 54.6445 10.7C54.6445 11.012 54.5305 11.282 54.3025 11.51C54.0745 11.738 53.8045 11.852 53.4925 11.852C53.1805 11.852 52.9105 11.738 52.6825 11.51C52.4545 11.282 52.3405 11.012 52.3405 10.7ZM62.8939 15.992C62.8939 15.644 63.0139 15.35 63.2539 15.11C63.5059 14.858 63.8059 14.732 64.1539 14.732C64.5019 14.732 64.7959 14.858 65.0359 15.11C65.2879 15.35 65.4139 15.644 65.4139 15.992C65.4139 16.34 65.2879 16.64 65.0359 16.892C64.7959 17.132 64.5019 17.252 64.1539 17.252C63.8059 17.252 63.5059 17.132 63.2539 16.892C63.0139 16.64 62.8939 16.34 62.8939 15.992ZM73.5734 10.736V8.648L77.6774 6.02V5.804H70.5494V4.4H78.9734V6.704L74.8694 9.332V9.548H75.5894C76.0694 9.548 76.5314 9.626 76.9754 9.782C77.4194 9.938 77.8094 10.166 78.1454 10.466C78.4934 10.766 78.7694 11.138 78.9734 11.582C79.1894 12.014 79.2974 12.518 79.2974 13.094V13.418C79.2974 13.958 79.1894 14.462 78.9734 14.93C78.7574 15.398 78.4574 15.806 78.0734 16.154C77.6894 16.49 77.2334 16.76 76.7054 16.964C76.1894 17.156 75.6254 17.252 75.0134 17.252C74.3054 17.252 73.6694 17.144 73.1054 16.928C72.5414 16.712 72.0614 16.418 71.6654 16.046C71.2694 15.662 70.9634 15.218 70.7474 14.714C70.5434 14.198 70.4414 13.652 70.4414 13.076V12.104H71.9534V12.968C71.9534 13.424 72.0254 13.832 72.1694 14.192C72.3254 14.54 72.5354 14.84 72.7994 15.092C73.0754 15.332 73.3994 15.518 73.7714 15.65C74.1434 15.782 74.5454 15.848 74.9774 15.848C75.3734 15.848 75.7394 15.782 76.0754 15.65C76.4234 15.518 76.7234 15.338 76.9754 15.11C77.2274 14.87 77.4254 14.594 77.5694 14.282C77.7134 13.958 77.7854 13.616 77.7854 13.256V13.148C77.7854 12.392 77.5454 11.804 77.0654 11.384C76.5854 10.952 75.9854 10.736 75.2654 10.736H73.5734Z" fill="#AAAAAA"/>
<g filter="url(#filter0_dd_66_715)">
<path d="M25.45 45H23.938V40.788C23.938 40.476 23.866 40.236 23.722 40.068C23.578 39.9 23.326 39.816 22.966 39.816H19.042V45H17.53V32.4H22.03C22.678 32.4 23.242 32.496 23.722 32.688C24.202 32.868 24.598 33.114 24.91 33.426C25.234 33.738 25.474 34.104 25.63 34.524C25.798 34.932 25.882 35.364 25.882 35.82V36.36C25.882 36.828 25.75 37.296 25.486 37.764C25.234 38.232 24.838 38.592 24.298 38.844V39.06C24.658 39.12 24.94 39.264 25.144 39.492C25.348 39.72 25.45 40.044 25.45 40.464V45ZM19.042 38.412H21.85C22.702 38.412 23.332 38.232 23.74 37.872C24.16 37.5 24.37 36.96 24.37 36.252V35.928C24.37 35.292 24.16 34.782 23.74 34.398C23.332 34.002 22.702 33.804 21.85 33.804H19.042V38.412ZM28.3535 32.4H35.9855V33.804H29.8655V37.98H35.8775V39.384H29.8655V43.596H36.0935V45H28.3535V32.4ZM45.531 41.868H40.131L39.213 45H37.593L41.409 32.4H44.253L48.069 45H46.449L45.531 41.868ZM42.723 33.048L40.545 40.464H45.117L42.939 33.048H42.723ZM49.5505 32.4H51.0625V43.596H57.6505V45H49.5505V32.4ZM70.9994 32.4H78.6314V33.804H72.5114V37.98H78.5234V39.384H72.5114V43.596H78.7394V45H70.9994V32.4ZM88.4469 36.036C88.4469 35.628 88.3629 35.268 88.1949 34.956C88.0389 34.644 87.8229 34.386 87.5469 34.182C87.2709 33.978 86.9529 33.822 86.5929 33.714C86.2329 33.606 85.8549 33.552 85.4589 33.552C85.1109 33.552 84.7809 33.6 84.4689 33.696C84.1569 33.78 83.8749 33.906 83.6229 34.074C83.3829 34.242 83.1909 34.452 83.0469 34.704C82.9029 34.944 82.8309 35.226 82.8309 35.55V35.658C82.8309 36.006 82.9029 36.306 83.0469 36.558C83.1909 36.798 83.4009 37.008 83.6769 37.188C83.9649 37.356 84.3189 37.5 84.7389 37.62C85.1589 37.728 85.6509 37.824 86.2149 37.908C87.5349 38.112 88.5069 38.502 89.1309 39.078C89.7549 39.642 90.0669 40.404 90.0669 41.364V41.58C90.0669 42.12 89.9709 42.618 89.7789 43.074C89.5989 43.518 89.3229 43.902 88.9509 44.226C88.5909 44.55 88.1409 44.802 87.6009 44.982C87.0609 45.162 86.4369 45.252 85.7289 45.252C84.9249 45.252 84.2109 45.138 83.5869 44.91C82.9749 44.67 82.4589 44.346 82.0389 43.938C81.6309 43.518 81.3189 43.032 81.1029 42.48C80.8869 41.916 80.7789 41.304 80.7789 40.644V40.104H82.2909V40.536C82.2909 41.64 82.5909 42.468 83.1909 43.02C83.8029 43.572 84.6489 43.848 85.7289 43.848C86.6649 43.848 87.3669 43.644 87.8349 43.236C88.3149 42.816 88.5549 42.264 88.5549 41.58V41.472C88.5549 40.812 88.3089 40.308 87.8169 39.96C87.3369 39.612 86.5509 39.36 85.4589 39.204C84.8229 39.12 84.2469 38.994 83.7309 38.826C83.2269 38.646 82.7949 38.418 82.4349 38.142C82.0749 37.854 81.7989 37.512 81.6069 37.116C81.4149 36.72 81.3189 36.252 81.3189 35.712V35.496C81.3189 35.004 81.4209 34.554 81.6249 34.146C81.8289 33.738 82.1109 33.384 82.4709 33.084C82.8429 32.784 83.2809 32.556 83.7849 32.4C84.3009 32.232 84.8649 32.148 85.4769 32.148C86.1849 32.148 86.8149 32.25 87.3669 32.454C87.9309 32.658 88.4049 32.934 88.7889 33.282C89.1729 33.618 89.4609 34.02 89.6529 34.488C89.8569 34.944 89.9589 35.424 89.9589 35.928V36.684H88.4469V36.036ZM91.7104 32.4H100.566V33.804H96.8944V45H95.3824V33.804H91.7104V32.4ZM109.5 41.868H104.1L103.182 45H101.562L105.378 32.4H108.222L112.038 45H110.418L109.5 41.868ZM106.692 33.048L104.514 40.464H109.086L106.908 33.048H106.692ZM113.033 32.4H121.889V33.804H118.217V45H116.705V33.804H113.033V32.4ZM124.307 32.4H131.939V33.804H125.819V37.98H131.831V39.384H125.819V43.596H132.047V45H124.307V32.4Z" fill="#D1D3FF"/>
</g>
<g filter="url(#filter1_d_66_715)">
<path d="M134 56H16" stroke="url(#paint0_linear_66_715)" stroke-opacity="0.2" stroke-dasharray="2.44 2.44" shape-rendering="crispEdges"/>
</g>
<path d="M169.866 113.158L136 56.5" stroke="#FAFAFA" stroke-opacity="0.2" stroke-dasharray="2 2"/>
<g filter="url(#filter2_d_66_715)">
<rect width="4" height="4" rx="2" transform="matrix(-1 0 0 1 174 114)" fill="#D1D3FF"/>
</g>
<defs>
<filter id="filter0_dd_66_715" x="-2.47021" y="12.1479" width="154.517" height="57.104" filterUnits="userSpaceOnUse" color-interpolation-filters="sRGB">
<feFlood flood-opacity="0" result="BackgroundImageFix"/>
<feColorMatrix in="SourceAlpha" type="matrix" values="0 0 0 0 0 0 0 0 0 0 0 0 0 0 0 0 0 0 127 0" result="hardAlpha"/>
<feOffset/>
<feGaussianBlur stdDeviation="10"/>
<feComposite in2="hardAlpha" operator="out"/>
<feColorMatrix type="matrix" values="0 0 0 0 1 0 0 0 0 1 0 0 0 0 1 0 0 0 0.5 0"/>
<feBlend mode="normal" in2="BackgroundImageFix" result="effect1_dropShadow_66_715"/>
<feColorMatrix in="SourceAlpha" type="matrix" values="0 0 0 0 0 0 0 0 0 0 0 0 0 0 0 0 0 0 127 0" result="hardAlpha"/>
<feOffset dy="4"/>
<feGaussianBlur stdDeviation="10"/>
<feComposite in2="hardAlpha" operator="out"/>
<feColorMatrix type="matrix" values="0 0 0 0 1 0 0 0 0 1 0 0 0 0 1 0 0 0 0.25 0"/>
<feBlend mode="normal" in2="effect1_dropShadow_66_715" result="effect2_dropShadow_66_715"/>
<feBlend mode="normal" in="SourceGraphic" in2="effect2_dropShadow_66_715" result="shape"/>
</filter>
<filter id="filter1_d_66_715" x="4" y="47.5" width="142" height="25" filterUnits="userSpaceOnUse" color-interpolation-filters="sRGB">
<feFlood flood-opacity="0" result="BackgroundImageFix"/>
<feColorMatrix in="SourceAlpha" type="matrix" values="0 0 0 0 0 0 0 0 0 0 0 0 0 0 0 0 0 0 127 0" result="hardAlpha"/>
<feOffset dy="4"/>
<feGaussianBlur stdDeviation="6"/>
<feComposite in2="hardAlpha" operator="out"/>
<feColorMatrix type="matrix" values="0 0 0 0 1 0 0 0 0 1 0 0 0 0 1 0 0 0 0.25 0"/>
<feBlend mode="normal" in2="BackgroundImageFix" result="effect1_dropShadow_66_715"/>
<feBlend mode="normal" in="SourceGraphic" in2="effect1_dropShadow_66_715" result="shape"/>
</filter>
<filter id="filter2_d_66_715" x="147" y="91" width="50" height="50" filterUnits="userSpaceOnUse" color-interpolation-filters="sRGB">
<feFlood flood-opacity="0" result="BackgroundImageFix"/>
<feColorMatrix in="SourceAlpha" type="matrix" values="0 0 0 0 0 0 0 0 0 0 0 0 0 0 0 0 0 0 127 0" result="hardAlpha"/>
<feMorphology radius="7" operator="dilate" in="SourceAlpha" result="effect1_dropShadow_66_715"/>
<feOffset/>
<feGaussianBlur stdDeviation="8"/>
<feComposite in2="hardAlpha" operator="out"/>
<feColorMatrix type="matrix" values="0 0 0 0 0.819608 0 0 0 0 0.827451 0 0 0 0 1 0 0 0 0.25 0"/>
<feBlend mode="normal" in2="BackgroundImageFix" result="effect1_dropShadow_66_715"/>
<feBlend mode="normal" in="SourceGraphic" in2="effect1_dropShadow_66_715" result="shape"/>
</filter>
<linearGradient id="paint0_linear_66_715" x1="16" y1="96.3531" x2="134" y2="96.353" gradientUnits="userSpaceOnUse">
<stop stop-color="white" stop-opacity="0.12"/>
<stop offset="1" stop-color="white"/>
</linearGradient>
</defs>
</svg>
