<svg width="84" height="88" viewBox="0 0 84 88" fill="none" xmlns="http://www.w3.org/2000/svg">
<g filter="url(#filter0_dd_1_181)">
<path d="M42.0119 23.9625C47.8935 23.9625 48.59 23.9883 50.9031 24.0914C53.0528 24.186 54.2136 24.547 54.9875 24.8478C56.0107 25.2432 56.7502 25.7246 57.5155 26.4895C58.2894 27.2631 58.7624 27.9937 59.1579 29.0166C59.4589 29.7902 59.82 30.9592 59.9146 33.0994C60.0178 35.4202 60.0436 36.1164 60.0436 41.9871C60.0436 47.8664 60.0178 48.5626 59.9146 50.8748C59.82 53.0236 59.4589 54.184 59.1579 54.9576C58.7624 55.9805 58.2808 56.7197 57.5155 57.4847C56.7416 58.2583 56.0107 58.731 54.9875 59.1264C54.2136 59.4272 53.0442 59.7882 50.9031 59.8828C48.5814 59.9859 47.8849 60.0117 42.0119 60.0117C36.1304 60.0117 35.4338 59.9859 33.1208 59.8828C30.9711 59.7882 29.8102 59.4272 29.0364 59.1264C28.0131 58.731 27.2736 58.2497 26.5083 57.4847C25.7344 56.7111 25.2615 55.9805 24.8659 54.9576C24.565 54.184 24.2038 53.015 24.1092 50.8748C24.0061 48.554 23.9803 47.8578 23.9803 41.9871C23.9803 36.1078 24.0061 35.4116 24.1092 33.0994C24.2038 30.9506 24.565 29.7902 24.8659 29.0166C25.2615 27.9937 25.743 27.2545 26.5083 26.4895C27.2822 25.716 28.0131 25.2432 29.0364 24.8478C29.8102 24.547 30.9797 24.186 33.1208 24.0914C35.4338 23.9883 36.1304 23.9625 42.0119 23.9625ZM42.0119 20C36.0358 20 35.2877 20.0258 32.9402 20.1289C30.6013 20.2321 28.9934 20.6103 27.6004 21.1518C26.1472 21.7191 24.9175 22.4669 23.6965 23.696C22.4669 24.9166 21.7188 26.1457 21.1513 27.5898C20.6095 28.9908 20.2312 30.5896 20.128 32.9275C20.0248 35.2827 19.999 36.0305 19.999 42.0043C19.999 47.9781 20.0248 48.7259 20.128 51.0725C20.2312 53.4104 20.6095 55.0178 21.1513 56.4102C21.7188 57.8629 22.4669 59.092 23.6965 60.3126C24.9175 61.5331 26.1472 62.2895 27.5918 62.8482C28.9934 63.3897 30.5927 63.7679 32.9316 63.8711C35.2791 63.9742 36.0272 64 42.0033 64C47.9795 64 48.7276 63.9742 51.075 63.8711C53.4139 63.7679 55.0219 63.3897 56.4149 62.8482C57.8595 62.2895 59.0891 61.5331 60.3101 60.3126C61.5312 59.092 62.2879 57.8629 62.8468 56.4188C63.3885 55.0178 63.7669 53.419 63.87 51.0811C63.9732 48.7345 63.999 47.9867 63.999 42.0129C63.999 36.0391 63.9732 35.2913 63.87 32.9447C63.7669 30.6068 63.3885 28.9994 62.8468 27.607C62.3051 26.1457 61.557 24.9166 60.3273 23.696C59.1063 22.4755 57.8767 21.7191 56.4321 21.1604C55.0305 20.6189 53.4311 20.2407 51.0922 20.1375C48.7362 20.0258 47.9881 20 42.0119 20Z" fill="#DDDDDD"/>
</g>
<g filter="url(#filter1_dd_1_181)">
<path d="M42.0119 30.7012C35.7692 30.7012 30.7045 35.7639 30.7045 42.0042C30.7045 48.2444 35.7692 53.3071 42.0119 53.3071C48.2547 53.3071 53.3193 48.2444 53.3193 42.0042C53.3193 35.7639 48.2547 30.7012 42.0119 30.7012ZM42.0119 49.3361C37.9619 49.3361 34.6772 46.0526 34.6772 42.0042C34.6772 37.9557 37.9619 34.6723 42.0119 34.6723C46.062 34.6723 49.3467 37.9557 49.3467 42.0042C49.3467 46.0526 46.062 49.3361 42.0119 49.3361Z" fill="#DDDDDD"/>
</g>
<g filter="url(#filter2_dd_1_181)">
<path d="M56.4063 30.2531C56.4063 31.7143 55.2197 32.8919 53.7665 32.8919C52.3047 32.8919 51.1266 31.7057 51.1266 30.2531C51.1266 28.7918 52.3133 27.6143 53.7665 27.6143C55.2197 27.6143 56.4063 28.8004 56.4063 30.2531Z" fill="#DDDDDD"/>
</g>
<defs>
<filter id="filter0_dd_1_181" x="-0.000976562" y="0" width="84" height="88" filterUnits="userSpaceOnUse" color-interpolation-filters="sRGB">
<feFlood flood-opacity="0" result="BackgroundImageFix"/>
<feColorMatrix in="SourceAlpha" type="matrix" values="0 0 0 0 0 0 0 0 0 0 0 0 0 0 0 0 0 0 127 0" result="hardAlpha"/>
<feOffset/>
<feGaussianBlur stdDeviation="10"/>
<feComposite in2="hardAlpha" operator="out"/>
<feColorMatrix type="matrix" values="0 0 0 0 1 0 0 0 0 1 0 0 0 0 1 0 0 0 0.5 0"/>
<feBlend mode="normal" in2="BackgroundImageFix" result="effect1_dropShadow_1_181"/>
<feColorMatrix in="SourceAlpha" type="matrix" values="0 0 0 0 0 0 0 0 0 0 0 0 0 0 0 0 0 0 127 0" result="hardAlpha"/>
<feOffset dy="4"/>
<feGaussianBlur stdDeviation="10"/>
<feComposite in2="hardAlpha" operator="out"/>
<feColorMatrix type="matrix" values="0 0 0 0 1 0 0 0 0 1 0 0 0 0 1 0 0 0 0.25 0"/>
<feBlend mode="normal" in2="effect1_dropShadow_1_181" result="effect2_dropShadow_1_181"/>
<feBlend mode="normal" in="SourceGraphic" in2="effect2_dropShadow_1_181" result="shape"/>
</filter>
<filter id="filter1_dd_1_181" x="10.7045" y="10.7012" width="62.6148" height="66.606" filterUnits="userSpaceOnUse" color-interpolation-filters="sRGB">
<feFlood flood-opacity="0" result="BackgroundImageFix"/>
<feColorMatrix in="SourceAlpha" type="matrix" values="0 0 0 0 0 0 0 0 0 0 0 0 0 0 0 0 0 0 127 0" result="hardAlpha"/>
<feOffset/>
<feGaussianBlur stdDeviation="10"/>
<feComposite in2="hardAlpha" operator="out"/>
<feColorMatrix type="matrix" values="0 0 0 0 1 0 0 0 0 1 0 0 0 0 1 0 0 0 0.5 0"/>
<feBlend mode="normal" in2="BackgroundImageFix" result="effect1_dropShadow_1_181"/>
<feColorMatrix in="SourceAlpha" type="matrix" values="0 0 0 0 0 0 0 0 0 0 0 0 0 0 0 0 0 0 127 0" result="hardAlpha"/>
<feOffset dy="4"/>
<feGaussianBlur stdDeviation="10"/>
<feComposite in2="hardAlpha" operator="out"/>
<feColorMatrix type="matrix" values="0 0 0 0 1 0 0 0 0 1 0 0 0 0 1 0 0 0 0.25 0"/>
<feBlend mode="normal" in2="effect1_dropShadow_1_181" result="effect2_dropShadow_1_181"/>
<feBlend mode="normal" in="SourceGraphic" in2="effect2_dropShadow_1_181" result="shape"/>
</filter>
<filter id="filter2_dd_1_181" x="31.1266" y="7.61426" width="45.2797" height="49.2778" filterUnits="userSpaceOnUse" color-interpolation-filters="sRGB">
<feFlood flood-opacity="0" result="BackgroundImageFix"/>
<feColorMatrix in="SourceAlpha" type="matrix" values="0 0 0 0 0 0 0 0 0 0 0 0 0 0 0 0 0 0 127 0" result="hardAlpha"/>
<feOffset/>
<feGaussianBlur stdDeviation="10"/>
<feComposite in2="hardAlpha" operator="out"/>
<feColorMatrix type="matrix" values="0 0 0 0 1 0 0 0 0 1 0 0 0 0 1 0 0 0 0.5 0"/>
<feBlend mode="normal" in2="BackgroundImageFix" result="effect1_dropShadow_1_181"/>
<feColorMatrix in="SourceAlpha" type="matrix" values="0 0 0 0 0 0 0 0 0 0 0 0 0 0 0 0 0 0 127 0" result="hardAlpha"/>
<feOffset dy="4"/>
<feGaussianBlur stdDeviation="10"/>
<feComposite in2="hardAlpha" operator="out"/>
<feColorMatrix type="matrix" values="0 0 0 0 1 0 0 0 0 1 0 0 0 0 1 0 0 0 0.25 0"/>
<feBlend mode="normal" in2="effect1_dropShadow_1_181" result="effect2_dropShadow_1_181"/>
<feBlend mode="normal" in="SourceGraphic" in2="effect2_dropShadow_1_181" result="shape"/>
</filter>
</defs>
</svg>
