<svg width="84" height="71" viewBox="0 0 84 71" fill="none" xmlns="http://www.w3.org/2000/svg">
<g filter="url(#filter0_dd_1_174)">
<path d="M63.9995 34.0017C63.9995 39.8224 63.0226 44.544 61.8172 44.544C60.6118 44.544 59.6354 39.8237 59.6354 34.0017C59.6354 28.1797 60.6123 23.4595 61.8172 23.4595C63.0222 23.4595 63.9995 28.1793 63.9995 34.0017Z" fill="#DDDDDD"/>
<path d="M58.4327 34.0009C58.4327 40.499 55.6547 45.7689 52.2278 45.7689C48.801 45.7689 46.0229 40.499 46.0229 34.0009C46.0229 27.5028 48.8005 22.2329 52.2274 22.2329C55.6543 22.2329 58.4323 27.5011 58.4323 34.0009" fill="#DDDDDD"/>
<path d="M44.8186 34.0002C44.8186 40.9037 39.2626 46.5 32.4093 46.5C25.556 46.5 19.9995 40.9024 19.9995 34.0002C19.9995 27.098 25.5555 21.5 32.4093 21.5C39.263 21.5 44.8186 27.0967 44.8186 34.0002Z" fill="#DDDDDD"/>
</g>
<defs>
<filter id="filter0_dd_1_174" x="-0.000488281" y="1.5" width="84" height="69" filterUnits="userSpaceOnUse" color-interpolation-filters="sRGB">
<feFlood flood-opacity="0" result="BackgroundImageFix"/>
<feColorMatrix in="SourceAlpha" type="matrix" values="0 0 0 0 0 0 0 0 0 0 0 0 0 0 0 0 0 0 127 0" result="hardAlpha"/>
<feOffset/>
<feGaussianBlur stdDeviation="10"/>
<feComposite in2="hardAlpha" operator="out"/>
<feColorMatrix type="matrix" values="0 0 0 0 1 0 0 0 0 1 0 0 0 0 1 0 0 0 0.5 0"/>
<feBlend mode="normal" in2="BackgroundImageFix" result="effect1_dropShadow_1_174"/>
<feColorMatrix in="SourceAlpha" type="matrix" values="0 0 0 0 0 0 0 0 0 0 0 0 0 0 0 0 0 0 127 0" result="hardAlpha"/>
<feOffset dy="4"/>
<feGaussianBlur stdDeviation="10"/>
<feComposite in2="hardAlpha" operator="out"/>
<feColorMatrix type="matrix" values="0 0 0 0 1 0 0 0 0 1 0 0 0 0 1 0 0 0 0.25 0"/>
<feBlend mode="normal" in2="effect1_dropShadow_1_174" result="effect2_dropShadow_1_174"/>
<feBlend mode="normal" in="SourceGraphic" in2="effect2_dropShadow_1_174" result="shape"/>
</filter>
</defs>
</svg>
