<svg width="84" height="82" viewBox="0 0 84 82" fill="none" xmlns="http://www.w3.org/2000/svg">
<g filter="url(#filter0_dd_1_188)">
<path d="M47.593 25.5637C48.0697 27.5589 49.8842 29.0452 52.051 29.0452C54.5806 29.0452 56.6313 27.0203 56.6313 24.5226C56.6313 22.0249 54.5806 20 52.051 20C49.8391 20 47.9945 21.5478 47.5651 23.6066C43.8608 23.9989 40.9683 27.1009 40.9683 30.8602C40.9683 30.8687 40.9683 30.875 40.9683 30.8835C36.9398 31.051 33.2613 32.1832 30.3408 33.9707C29.2564 33.1416 27.895 32.6476 26.4176 32.6476C22.8722 32.6476 19.999 35.4845 19.999 38.9852C19.999 41.5253 21.5108 43.7134 23.6947 44.7248C23.9073 52.0822 32.0265 58 42.0141 58C52.0016 58 60.1316 52.0759 60.3334 44.7121C62.5001 43.6943 63.999 41.5126 63.999 38.9873C63.999 35.4867 61.1258 32.6497 57.5805 32.6497C56.1095 32.6497 54.7545 33.1395 53.6722 33.9622C50.726 32.162 47.0067 31.0298 42.9374 30.8793C42.9374 30.8729 42.9374 30.8687 42.9374 30.8623C42.9374 28.1695 44.9646 25.9347 47.593 25.5679V25.5637ZM30.0832 43.0074C30.1905 40.709 31.7367 38.9449 33.534 38.9449C35.3314 38.9449 36.7057 40.8086 36.5983 43.107C36.491 45.4054 35.1489 46.2408 33.3493 46.2408C31.5498 46.2408 29.9758 45.3058 30.0832 43.0074ZM50.4962 38.9449C52.2958 38.9449 53.8419 40.709 53.9471 43.0074C54.0545 45.3058 52.4783 46.2408 50.6809 46.2408C48.8836 46.2408 47.5393 45.4075 47.4319 43.107C47.3245 40.8086 48.6967 38.9449 50.4962 38.9449ZM48.3574 48.3251C48.6946 48.359 48.9093 48.7046 48.7783 49.0142C47.6724 51.6243 45.0612 53.4583 42.0141 53.4583C38.9669 53.4583 36.3578 51.6243 35.2498 49.0142C35.1188 48.7046 35.3335 48.359 35.6707 48.3251C37.6463 48.1279 39.7829 48.0198 42.0141 48.0198C44.2452 48.0198 46.3797 48.1279 48.3574 48.3251Z" fill="#DDDDDD"/>
</g>
<defs>
<filter id="filter0_dd_1_188" x="-0.000976562" y="0" width="84" height="82" filterUnits="userSpaceOnUse" color-interpolation-filters="sRGB">
<feFlood flood-opacity="0" result="BackgroundImageFix"/>
<feColorMatrix in="SourceAlpha" type="matrix" values="0 0 0 0 0 0 0 0 0 0 0 0 0 0 0 0 0 0 127 0" result="hardAlpha"/>
<feOffset/>
<feGaussianBlur stdDeviation="10"/>
<feComposite in2="hardAlpha" operator="out"/>
<feColorMatrix type="matrix" values="0 0 0 0 1 0 0 0 0 1 0 0 0 0 1 0 0 0 0.5 0"/>
<feBlend mode="normal" in2="BackgroundImageFix" result="effect1_dropShadow_1_188"/>
<feColorMatrix in="SourceAlpha" type="matrix" values="0 0 0 0 0 0 0 0 0 0 0 0 0 0 0 0 0 0 127 0" result="hardAlpha"/>
<feOffset dy="4"/>
<feGaussianBlur stdDeviation="10"/>
<feComposite in2="hardAlpha" operator="out"/>
<feColorMatrix type="matrix" values="0 0 0 0 1 0 0 0 0 1 0 0 0 0 1 0 0 0 0.25 0"/>
<feBlend mode="normal" in2="effect1_dropShadow_1_188" result="effect2_dropShadow_1_188"/>
<feBlend mode="normal" in="SourceGraphic" in2="effect2_dropShadow_1_188" result="shape"/>
</filter>
</defs>
</svg>
