<svg width="84" height="78" viewBox="0 0 84 78" fill="none" xmlns="http://www.w3.org/2000/svg">
<g filter="url(#filter0_dd_1_186)">
<path d="M57.2469 23.2355C54.4425 21.9694 51.4352 21.0365 48.2908 20.5022C48.2336 20.4919 48.1764 20.5177 48.1469 20.5692C47.7601 21.2461 47.3317 22.1291 47.0317 22.8232C43.6498 22.325 40.2852 22.325 36.9726 22.8232C36.6725 22.1137 36.2286 21.2461 35.8401 20.5692C35.8106 20.5194 35.7534 20.4936 35.6961 20.5022C32.5535 21.0348 29.5462 21.9677 26.7401 23.2355C26.7158 23.2458 26.695 23.263 26.6811 23.2853C20.9769 31.6707 19.4143 39.85 20.1809 47.9278C20.1843 47.9673 20.2069 48.0051 20.2381 48.0292C24.0016 50.7487 27.6472 52.3997 31.225 53.494C31.2823 53.5112 31.343 53.4906 31.3794 53.4442C32.2258 52.3069 32.9802 51.1078 33.6271 49.8468C33.6652 49.7729 33.6288 49.6853 33.5508 49.6561C32.3541 49.2094 31.2146 48.6648 30.1185 48.0464C30.0318 47.9965 30.0249 47.8745 30.1046 47.8161C30.3353 47.646 30.566 47.4691 30.7863 47.2904C30.8261 47.2578 30.8816 47.2509 30.9285 47.2715C38.1294 50.5065 45.9252 50.5065 53.0411 47.2715C53.088 47.2492 53.1435 47.2561 53.1851 47.2887C53.4054 47.4674 53.636 47.646 53.8684 47.8161C53.9482 47.8745 53.943 47.9965 53.8563 48.0464C52.7602 48.6768 51.6207 49.2094 50.4223 49.6544C50.3443 49.6836 50.3096 49.7729 50.3477 49.8468C51.0085 51.106 51.7629 52.3052 52.5937 53.4425C52.6284 53.4906 52.6908 53.5112 52.748 53.494C56.3433 52.3997 59.9888 50.7487 63.7523 48.0292C63.7853 48.0051 63.8061 47.969 63.8096 47.9295C64.727 38.5906 62.2729 30.4785 57.3041 23.287C57.2919 23.263 57.2712 23.2458 57.2469 23.2355ZM34.7024 43.0093C32.5344 43.0093 30.7481 41.0508 30.7481 38.6456C30.7481 36.2405 32.4998 34.282 34.7024 34.282C36.9223 34.282 38.6913 36.2577 38.6566 38.6456C38.6566 41.0508 36.9049 43.0093 34.7024 43.0093ZM49.3227 43.0093C47.1548 43.0093 45.3685 41.0508 45.3685 38.6456C45.3685 36.2405 47.1201 34.282 49.3227 34.282C51.5427 34.282 53.3117 36.2577 53.277 38.6456C53.277 41.0508 51.5427 43.0093 49.3227 43.0093Z" fill="#DDDDDD"/>
</g>
<defs>
<filter id="filter0_dd_1_186" x="-0.000976562" y="0.5" width="84" height="77" filterUnits="userSpaceOnUse" color-interpolation-filters="sRGB">
<feFlood flood-opacity="0" result="BackgroundImageFix"/>
<feColorMatrix in="SourceAlpha" type="matrix" values="0 0 0 0 0 0 0 0 0 0 0 0 0 0 0 0 0 0 127 0" result="hardAlpha"/>
<feOffset/>
<feGaussianBlur stdDeviation="10"/>
<feComposite in2="hardAlpha" operator="out"/>
<feColorMatrix type="matrix" values="0 0 0 0 1 0 0 0 0 1 0 0 0 0 1 0 0 0 0.5 0"/>
<feBlend mode="normal" in2="BackgroundImageFix" result="effect1_dropShadow_1_186"/>
<feColorMatrix in="SourceAlpha" type="matrix" values="0 0 0 0 0 0 0 0 0 0 0 0 0 0 0 0 0 0 127 0" result="hardAlpha"/>
<feOffset dy="4"/>
<feGaussianBlur stdDeviation="10"/>
<feComposite in2="hardAlpha" operator="out"/>
<feColorMatrix type="matrix" values="0 0 0 0 1 0 0 0 0 1 0 0 0 0 1 0 0 0 0.25 0"/>
<feBlend mode="normal" in2="effect1_dropShadow_1_186" result="effect2_dropShadow_1_186"/>
<feBlend mode="normal" in="SourceGraphic" in2="effect2_dropShadow_1_186" result="shape"/>
</filter>
</defs>
</svg>
